<?xml version="1.0" encoding="UTF-8" standalone="no"?><svg xmlns="http://www.w3.org/2000/svg" xmlns:xlink="http://www.w3.org/1999/xlink" contentScriptType="application/ecmascript" contentStyleType="text/css" height="1101px" preserveAspectRatio="none" style="width:1084px;height:1101px;" version="1.1" viewBox="0 0 1084 1101" width="1084px" zoomAndPan="magnify"><defs><filter height="300%" id="f4tn5wwridcyr" width="300%" x="-1" y="-1"><feGaussianBlur result="blurOut" stdDeviation="2.0"/><feColorMatrix in="blurOut" result="blurOut2" type="matrix" values="0 0 0 0 0 0 0 0 0 0 0 0 0 0 0 0 0 0 .4 0"/><feOffset dx="4.0" dy="4.0" in="blurOut2" result="blurOut3"/><feBlend in="SourceGraphic" in2="blurOut3" mode="normal"/></filter></defs><g><text fill="#000000" font-family="sans-serif" font-size="18" lengthAdjust="spacingAndGlyphs" textLength="175" x="448" y="16.708">PA-1: Class Outline</text><!--MD5=[4bc48d7f7285b4bb8e927ddab08b7c57]
class DocoMoveStrategy--><rect codeLine="79" fill="#FEFECE" filter="url(#f4tn5wwridcyr)" height="60.8047" id="DocoMoveStrategy" style="stroke: #A80036; stroke-width: 1.5;" width="145" x="372.5" y="917.9531"/><ellipse cx="387.5" cy="933.9531" fill="#B4A7E5" rx="11" ry="11" style="stroke: #A80036; stroke-width: 1.0;"/><path d="M388.4531,930.7344 L390.1719,930.7344 C390.5625,930.7344 390.75,930.7031 390.875,930.625 C391.1406,930.4688 391.2813,930.1875 391.2813,929.8906 C391.2813,929.625 391.1719,929.3594 390.9375,929.1875 C390.7656,929.0781 390.625,929.0469 390.1719,929.0469 L385.0313,929.0469 C384.5938,929.0469 384.4688,929.0625 384.3125,929.1563 C384.0625,929.3125 383.9063,929.6094 383.9063,929.8906 C383.9063,930.1719 384.0469,930.4219 384.2656,930.5938 C384.4219,930.7031 384.6094,930.7344 385.0313,930.7344 L386.75,930.7344 L386.75,937.25 L385.0313,937.25 C384.5938,937.25 384.4688,937.2656 384.3125,937.375 C384.0625,937.5313 383.9063,937.8125 383.9063,938.1094 C383.9063,938.3594 384.0469,938.625 384.2656,938.7813 C384.4219,938.9063 384.625,938.9531 385.0313,938.9531 L390.1719,938.9531 C390.9219,938.9531 391.2813,938.6719 391.2813,938.1094 C391.2813,937.8281 391.1719,937.5781 390.9375,937.4063 C390.7656,937.2813 390.625,937.25 390.1719,937.25 L388.4531,937.25 L388.4531,930.7344 Z "/><text fill="#000000" font-family="sans-serif" font-size="12" font-style="italic" lengthAdjust="spacingAndGlyphs" textLength="113" x="401.5" y="938.1074">DocoMoveStrategy</text><line style="stroke: #A80036; stroke-width: 1.5;" x1="373.5" x2="516.5" y1="949.9531" y2="949.9531"/><line style="stroke: #A80036; stroke-width: 1.5;" x1="373.5" x2="516.5" y1="957.9531" y2="957.9531"/><ellipse cx="383.5" cy="968.9531" fill="#84BE84" rx="3" ry="3" style="stroke: #038048; stroke-width: 1.0;"/><text fill="#000000" font-family="sans-serif" font-size="11" lengthAdjust="spacingAndGlyphs" textLength="90" x="392.5" y="972.1636">moveStrategy()</text><!--MD5=[98ae4333f7777cdc77f78d1b8db6e485]
class Doco--><rect codeLine="9" fill="#FEFECE" filter="url(#f4tn5wwridcyr)" height="150.4375" id="Doco" style="stroke: #A80036; stroke-width: 1.5;" width="254" x="428" y="690.9531"/><ellipse cx="534.75" cy="706.9531" fill="#ADD1B2" rx="11" ry="11" style="stroke: #A80036; stroke-width: 1.0;"/><path d="M537.0938,702.625 C536.1563,702.1875 535.5625,702.0469 534.6875,702.0469 C532.0625,702.0469 530.0625,704.125 530.0625,706.8438 L530.0625,707.9688 C530.0625,710.5469 532.1719,712.4375 535.0625,712.4375 C536.2813,712.4375 537.4375,712.1406 538.1875,711.5938 C538.7656,711.1875 539.0938,710.7344 539.0938,710.3438 C539.0938,709.8906 538.7031,709.5 538.2344,709.5 C538.0156,709.5 537.8125,709.5781 537.625,709.7656 C537.1719,710.25 537.1719,710.25 536.9844,710.3438 C536.5625,710.6094 535.875,710.7344 535.1094,710.7344 C533.0625,710.7344 531.7656,709.6406 531.7656,707.9375 L531.7656,706.8438 C531.7656,705.0625 533.0156,703.75 534.75,703.75 C535.3281,703.75 535.9375,703.9063 536.4063,704.1563 C536.8906,704.4375 537.0625,704.6563 537.1563,705.0625 C537.2188,705.4688 537.25,705.5938 537.3906,705.7188 C537.5313,705.8594 537.7656,705.9688 537.9844,705.9688 C538.25,705.9688 538.5156,705.8281 538.6875,705.6094 C538.7969,705.4531 538.8281,705.2656 538.8281,704.8438 L538.8281,703.4219 C538.8281,702.9844 538.8125,702.8594 538.7188,702.7031 C538.5625,702.4375 538.2813,702.2969 537.9844,702.2969 C537.6875,702.2969 537.4844,702.3906 537.2656,702.7031 L537.0938,702.625 Z "/><text fill="#000000" font-family="sans-serif" font-size="12" lengthAdjust="spacingAndGlyphs" textLength="32" x="555.25" y="711.1074">Doco</text><line style="stroke: #A80036; stroke-width: 1.5;" x1="429" x2="681" y1="722.9531" y2="722.9531"/><rect fill="none" height="6" style="stroke: #C82930; stroke-width: 1.0;" width="6" x="436" y="730.9531"/><text fill="#000000" font-family="sans-serif" font-size="11" lengthAdjust="spacingAndGlyphs" textLength="208" x="448" y="737.1636">*moveStrategy : DocoMoveStrategy</text><rect fill="none" height="6" style="stroke: #C82930; stroke-width: 1.0;" width="6" x="436" y="743.7578"/><text fill="#000000" font-family="sans-serif" font-size="11" lengthAdjust="spacingAndGlyphs" textLength="159" x="448" y="749.9683">direction : pair string pair int</text><rect fill="none" height="6" style="stroke: #C82930; stroke-width: 1.0;" width="6" x="436" y="756.5625"/><text fill="#000000" font-family="sans-serif" font-size="11" lengthAdjust="spacingAndGlyphs" textLength="94" x="448" y="762.7729">position : pair int</text><ellipse cx="439" cy="772.3672" fill="none" rx="3" ry="3" style="stroke: #038048; stroke-width: 1.0;"/><text fill="#000000" font-family="sans-serif" font-size="11" lengthAdjust="spacingAndGlyphs" textLength="171" x="448" y="775.5776">adjoined_cells : vector pair int</text><ellipse cx="439" cy="785.1719" fill="none" rx="3" ry="3" style="stroke: #038048; stroke-width: 1.0;"/><text fill="#000000" font-family="sans-serif" font-size="11" lengthAdjust="spacingAndGlyphs" textLength="228" x="448" y="788.3823">adjoined_occupied_cells : vector pair int</text><ellipse cx="439" cy="797.9766" fill="none" rx="3" ry="3" style="stroke: #038048; stroke-width: 1.0;"/><text fill="#000000" font-family="sans-serif" font-size="11" lengthAdjust="spacingAndGlyphs" textLength="202" x="448" y="801.187">adjoined_food_cells : vector pair int</text><ellipse cx="439" cy="810.7813" fill="none" rx="3" ry="3" style="stroke: #038048; stroke-width: 1.0;"/><text fill="#000000" font-family="sans-serif" font-size="11" lengthAdjust="spacingAndGlyphs" textLength="170" x="448" y="813.9917">move_options : vector pair int</text><line style="stroke: #A80036; stroke-width: 1.5;" x1="429" x2="681" y1="820.5859" y2="820.5859"/><ellipse cx="439" cy="831.5859" fill="#84BE84" rx="3" ry="3" style="stroke: #038048; stroke-width: 1.0;"/><text fill="#000000" font-family="sans-serif" font-size="11" lengthAdjust="spacingAndGlyphs" textLength="172" x="448" y="834.7964">move(int world_w, int world_h)</text><!--MD5=[75cea4b4dffcf7706260da2197a7b9f3]
class AbstractSimpleDocoFactory--><rect codeLine="21" fill="#FEFECE" filter="url(#f4tn5wwridcyr)" height="112.0234" id="AbstractSimpleDocoFactory" style="stroke: #A80036; stroke-width: 1.5;" width="214" x="117" y="312.9531"/><ellipse cx="138.75" cy="328.9531" fill="#B4A7E5" rx="11" ry="11" style="stroke: #A80036; stroke-width: 1.0;"/><path d="M139.7031,325.7344 L141.4219,325.7344 C141.8125,325.7344 142,325.7031 142.125,325.625 C142.3906,325.4688 142.5313,325.1875 142.5313,324.8906 C142.5313,324.625 142.4219,324.3594 142.1875,324.1875 C142.0156,324.0781 141.875,324.0469 141.4219,324.0469 L136.2813,324.0469 C135.8438,324.0469 135.7188,324.0625 135.5625,324.1563 C135.3125,324.3125 135.1563,324.6094 135.1563,324.8906 C135.1563,325.1719 135.2969,325.4219 135.5156,325.5938 C135.6719,325.7031 135.8594,325.7344 136.2813,325.7344 L138,325.7344 L138,332.25 L136.2813,332.25 C135.8438,332.25 135.7188,332.2656 135.5625,332.375 C135.3125,332.5313 135.1563,332.8125 135.1563,333.1094 C135.1563,333.3594 135.2969,333.625 135.5156,333.7813 C135.6719,333.9063 135.875,333.9531 136.2813,333.9531 L141.4219,333.9531 C142.1719,333.9531 142.5313,333.6719 142.5313,333.1094 C142.5313,332.8281 142.4219,332.5781 142.1875,332.4063 C142.0156,332.2813 141.875,332.25 141.4219,332.25 L139.7031,332.25 L139.7031,325.7344 Z "/><text fill="#000000" font-family="sans-serif" font-size="12" font-style="italic" lengthAdjust="spacingAndGlyphs" textLength="167" x="154.25" y="333.1074">AbstractSimpleDocoFactory</text><line style="stroke: #A80036; stroke-width: 1.5;" x1="118" x2="330" y1="344.9531" y2="344.9531"/><ellipse cx="128" cy="355.9531" fill="none" rx="3" ry="3" style="stroke: #038048; stroke-width: 1.0;"/><text fill="#000000" font-family="sans-serif" font-size="11" lengthAdjust="spacingAndGlyphs" textLength="188" x="137" y="359.1636">note--implemented_as_singleton</text><line style="stroke: #A80036; stroke-width: 1.5;" x1="118" x2="330" y1="365.7578" y2="365.7578"/><ellipse cx="128" cy="376.7578" fill="#84BE84" rx="3" ry="3" style="stroke: #038048; stroke-width: 1.0;"/><text fill="#000000" font-family="sans-serif" font-size="11" lengthAdjust="spacingAndGlyphs" textLength="116" x="137" y="379.9683">createDocoDefault()</text><ellipse cx="128" cy="389.5625" fill="#84BE84" rx="3" ry="3" style="stroke: #038048; stroke-width: 1.0;"/><text fill="#000000" font-family="sans-serif" font-size="11" lengthAdjust="spacingAndGlyphs" textLength="124" x="137" y="392.7729">createDocoDiagonal()</text><ellipse cx="128" cy="402.3672" fill="#84BE84" rx="3" ry="3" style="stroke: #038048; stroke-width: 1.0;"/><text fill="#000000" font-family="sans-serif" font-size="11" lengthAdjust="spacingAndGlyphs" textLength="131" x="137" y="405.5776">createDocoHorizontal()</text><ellipse cx="128" cy="415.1719" fill="#84BE84" rx="3" ry="3" style="stroke: #038048; stroke-width: 1.0;"/><text fill="#000000" font-family="sans-serif" font-size="11" lengthAdjust="spacingAndGlyphs" textLength="117" x="137" y="418.3823">createDocoVertical()</text><!--MD5=[8c920099133bd95de7a90ed3e7b2e321]
class CellGrid--><rect codeLine="30" fill="#FEFECE" filter="url(#f4tn5wwridcyr)" height="137.6328" id="CellGrid" style="stroke: #A80036; stroke-width: 1.5;" width="325" x="366.5" y="299.9531"/><ellipse cx="501.25" cy="315.9531" fill="#ADD1B2" rx="11" ry="11" style="stroke: #A80036; stroke-width: 1.0;"/><path d="M503.5938,311.625 C502.6563,311.1875 502.0625,311.0469 501.1875,311.0469 C498.5625,311.0469 496.5625,313.125 496.5625,315.8438 L496.5625,316.9688 C496.5625,319.5469 498.6719,321.4375 501.5625,321.4375 C502.7813,321.4375 503.9375,321.1406 504.6875,320.5938 C505.2656,320.1875 505.5938,319.7344 505.5938,319.3438 C505.5938,318.8906 505.2031,318.5 504.7344,318.5 C504.5156,318.5 504.3125,318.5781 504.125,318.7656 C503.6719,319.25 503.6719,319.25 503.4844,319.3438 C503.0625,319.6094 502.375,319.7344 501.6094,319.7344 C499.5625,319.7344 498.2656,318.6406 498.2656,316.9375 L498.2656,315.8438 C498.2656,314.0625 499.5156,312.75 501.25,312.75 C501.8281,312.75 502.4375,312.9063 502.9063,313.1563 C503.3906,313.4375 503.5625,313.6563 503.6563,314.0625 C503.7188,314.4688 503.75,314.5938 503.8906,314.7188 C504.0313,314.8594 504.2656,314.9688 504.4844,314.9688 C504.75,314.9688 505.0156,314.8281 505.1875,314.6094 C505.2969,314.4531 505.3281,314.2656 505.3281,313.8438 L505.3281,312.4219 C505.3281,311.9844 505.3125,311.8594 505.2188,311.7031 C505.0625,311.4375 504.7813,311.2969 504.4844,311.2969 C504.1875,311.2969 503.9844,311.3906 503.7656,311.7031 L503.5938,311.625 Z "/><text fill="#000000" font-family="sans-serif" font-size="12" lengthAdjust="spacingAndGlyphs" textLength="47" x="521.75" y="320.1074">CellGrid</text><line style="stroke: #A80036; stroke-width: 1.5;" x1="367.5" x2="690.5" y1="331.9531" y2="331.9531"/><polygon fill="none" points="377.5,337.9531,381.5,341.9531,377.5,345.9531,373.5,341.9531" style="stroke: #B38D22; stroke-width: 1.0;"/><text fill="#000000" font-family="sans-serif" font-size="11" lengthAdjust="spacingAndGlyphs" textLength="135" x="386.5" y="346.1636">my_grid_size : GridSize</text><polygon fill="none" points="377.5,350.7578,381.5,354.7578,377.5,358.7578,373.5,354.7578" style="stroke: #B38D22; stroke-width: 1.0;"/><text fill="#000000" font-family="sans-serif" font-size="11" lengthAdjust="spacingAndGlyphs" textLength="217" x="386.5" y="358.9683">char_matrix :  vector&lt;vector&lt;char&gt; &gt;</text><polygon fill="none" points="377.5,363.5625,381.5,367.5625,377.5,371.5625,373.5,367.5625" style="stroke: #B38D22; stroke-width: 1.0;"/><text fill="#000000" font-family="sans-serif" font-size="11" lengthAdjust="spacingAndGlyphs" textLength="260" x="386.5" y="371.7729">temp_adjoined_cells :  vector&lt;pair&lt;int,int&gt; &gt;</text><ellipse cx="377.5" cy="381.3672" fill="none" rx="3" ry="3" style="stroke: #038048; stroke-width: 1.0;"/><text fill="#000000" font-family="sans-serif" font-size="11" lengthAdjust="spacingAndGlyphs" textLength="207" x="386.5" y="384.5776">cell_matrix : vector&lt;vector&lt;Cell&gt; &gt;</text><line style="stroke: #A80036; stroke-width: 1.5;" x1="367.5" x2="690.5" y1="391.1719" y2="391.1719"/><ellipse cx="377.5" cy="402.1719" fill="#84BE84" rx="3" ry="3" style="stroke: #038048; stroke-width: 1.0;"/><text fill="#000000" font-family="sans-serif" font-size="11" lengthAdjust="spacingAndGlyphs" textLength="274" x="386.5" y="405.3823">findAjoinedCells(int, int) : vector&lt;pair&lt;int,int&gt; &gt;</text><ellipse cx="377.5" cy="414.9766" fill="#84BE84" rx="3" ry="3" style="stroke: #038048; stroke-width: 1.0;"/><text fill="#000000" font-family="sans-serif" font-size="11" lengthAdjust="spacingAndGlyphs" textLength="270" x="386.5" y="418.187">findAjoinedCellsFood() :  vector&lt;pair&lt;int,int&gt; &gt;</text><ellipse cx="377.5" cy="427.7813" fill="#84BE84" rx="3" ry="3" style="stroke: #038048; stroke-width: 1.0;"/><text fill="#000000" font-family="sans-serif" font-size="11" lengthAdjust="spacingAndGlyphs" textLength="299" x="386.5" y="430.9917">findAdjoinedOccupiedCells() : vector&lt;pair&lt;int,int&gt; &gt;</text><!--MD5=[994b56f6035ea8d5eeeffee08038c00e]
class WorldBoard--><rect codeLine="41" fill="#FEFECE" filter="url(#f4tn5wwridcyr)" height="86.4141" id="WorldBoard" style="stroke: #A80036; stroke-width: 1.5;" width="269" x="568.5" y="136.9531"/><ellipse cx="662.75" cy="152.9531" fill="#ADD1B2" rx="11" ry="11" style="stroke: #A80036; stroke-width: 1.0;"/><path d="M665.0938,148.625 C664.1563,148.1875 663.5625,148.0469 662.6875,148.0469 C660.0625,148.0469 658.0625,150.125 658.0625,152.8438 L658.0625,153.9688 C658.0625,156.5469 660.1719,158.4375 663.0625,158.4375 C664.2813,158.4375 665.4375,158.1406 666.1875,157.5938 C666.7656,157.1875 667.0938,156.7344 667.0938,156.3438 C667.0938,155.8906 666.7031,155.5 666.2344,155.5 C666.0156,155.5 665.8125,155.5781 665.625,155.7656 C665.1719,156.25 665.1719,156.25 664.9844,156.3438 C664.5625,156.6094 663.875,156.7344 663.1094,156.7344 C661.0625,156.7344 659.7656,155.6406 659.7656,153.9375 L659.7656,152.8438 C659.7656,151.0625 661.0156,149.75 662.75,149.75 C663.3281,149.75 663.9375,149.9063 664.4063,150.1563 C664.8906,150.4375 665.0625,150.6563 665.1563,151.0625 C665.2188,151.4688 665.25,151.5938 665.3906,151.7188 C665.5313,151.8594 665.7656,151.9688 665.9844,151.9688 C666.25,151.9688 666.5156,151.8281 666.6875,151.6094 C666.7969,151.4531 666.8281,151.2656 666.8281,150.8438 L666.8281,149.4219 C666.8281,148.9844 666.8125,148.8594 666.7188,148.7031 C666.5625,148.4375 666.2813,148.2969 665.9844,148.2969 C665.6875,148.2969 665.4844,148.3906 665.2656,148.7031 L665.0938,148.625 Z "/><text fill="#000000" font-family="sans-serif" font-size="12" lengthAdjust="spacingAndGlyphs" textLength="72" x="683.25" y="157.1074">WorldBoard</text><line style="stroke: #A80036; stroke-width: 1.5;" x1="569.5" x2="836.5" y1="168.9531" y2="168.9531"/><rect fill="none" height="6" style="stroke: #C82930; stroke-width: 1.0;" width="6" x="576.5" y="176.9531"/><text fill="#000000" font-family="sans-serif" font-size="11" lengthAdjust="spacingAndGlyphs" textLength="224" x="588.5" y="183.1636">food_positions : vector&lt;pair&lt;int, int&gt; &gt;</text><rect fill="none" height="6" style="stroke: #C82930; stroke-width: 1.0;" width="6" x="576.5" y="189.7578"/><text fill="#000000" font-family="sans-serif" font-size="11" lengthAdjust="spacingAndGlyphs" textLength="243" x="588.5" y="195.9683">obstacle_positions: vector&lt;pair&lt;int, int&gt; &gt;</text><ellipse cx="579.5" cy="205.5625" fill="none" rx="3" ry="3" style="stroke: #038048; stroke-width: 1.0;"/><text fill="#000000" font-family="sans-serif" font-size="11" lengthAdjust="spacingAndGlyphs" textLength="152" x="588.5" y="208.7729">doco_vect : vector&lt;Doco&gt;</text><line style="stroke: #A80036; stroke-width: 1.5;" x1="569.5" x2="836.5" y1="215.3672" y2="215.3672"/><!--MD5=[4520fda4e10d4d791ce48fe025810cd4]
class main--><rect codeLine="48" fill="#FEFECE" filter="url(#f4tn5wwridcyr)" height="48" id="main" style="stroke: #A80036; stroke-width: 1.5;" width="60" x="887" y="27.9531"/><ellipse cx="902" cy="43.9531" fill="#ADD1B2" rx="11" ry="11" style="stroke: #A80036; stroke-width: 1.0;"/><path d="M904.3438,39.625 C903.4063,39.1875 902.8125,39.0469 901.9375,39.0469 C899.3125,39.0469 897.3125,41.125 897.3125,43.8438 L897.3125,44.9688 C897.3125,47.5469 899.4219,49.4375 902.3125,49.4375 C903.5313,49.4375 904.6875,49.1406 905.4375,48.5938 C906.0156,48.1875 906.3438,47.7344 906.3438,47.3438 C906.3438,46.8906 905.9531,46.5 905.4844,46.5 C905.2656,46.5 905.0625,46.5781 904.875,46.7656 C904.4219,47.25 904.4219,47.25 904.2344,47.3438 C903.8125,47.6094 903.125,47.7344 902.3594,47.7344 C900.3125,47.7344 899.0156,46.6406 899.0156,44.9375 L899.0156,43.8438 C899.0156,42.0625 900.2656,40.75 902,40.75 C902.5781,40.75 903.1875,40.9063 903.6563,41.1563 C904.1406,41.4375 904.3125,41.6563 904.4063,42.0625 C904.4688,42.4688 904.5,42.5938 904.6406,42.7188 C904.7813,42.8594 905.0156,42.9688 905.2344,42.9688 C905.5,42.9688 905.7656,42.8281 905.9375,42.6094 C906.0469,42.4531 906.0781,42.2656 906.0781,41.8438 L906.0781,40.4219 C906.0781,39.9844 906.0625,39.8594 905.9688,39.7031 C905.8125,39.4375 905.5313,39.2969 905.2344,39.2969 C904.9375,39.2969 904.7344,39.3906 904.5156,39.7031 L904.3438,39.625 Z "/><text fill="#000000" font-family="sans-serif" font-size="12" lengthAdjust="spacingAndGlyphs" textLength="28" x="916" y="48.1074">main</text><line style="stroke: #A80036; stroke-width: 1.5;" x1="888" x2="946" y1="59.9531" y2="59.9531"/><line style="stroke: #A80036; stroke-width: 1.5;" x1="888" x2="946" y1="67.9531" y2="67.9531"/><!--MD5=[cdc034b6503501c2a020e906a0bff78a]
class DataParser--><rect codeLine="49" fill="#FEFECE" filter="url(#f4tn5wwridcyr)" height="48" id="DataParser" style="stroke: #A80036; stroke-width: 1.5;" width="97" x="726.5" y="344.9531"/><ellipse cx="741.5" cy="360.9531" fill="#ADD1B2" rx="11" ry="11" style="stroke: #A80036; stroke-width: 1.0;"/><path d="M743.8438,356.625 C742.9063,356.1875 742.3125,356.0469 741.4375,356.0469 C738.8125,356.0469 736.8125,358.125 736.8125,360.8438 L736.8125,361.9688 C736.8125,364.5469 738.9219,366.4375 741.8125,366.4375 C743.0313,366.4375 744.1875,366.1406 744.9375,365.5938 C745.5156,365.1875 745.8438,364.7344 745.8438,364.3438 C745.8438,363.8906 745.4531,363.5 744.9844,363.5 C744.7656,363.5 744.5625,363.5781 744.375,363.7656 C743.9219,364.25 743.9219,364.25 743.7344,364.3438 C743.3125,364.6094 742.625,364.7344 741.8594,364.7344 C739.8125,364.7344 738.5156,363.6406 738.5156,361.9375 L738.5156,360.8438 C738.5156,359.0625 739.7656,357.75 741.5,357.75 C742.0781,357.75 742.6875,357.9063 743.1563,358.1563 C743.6406,358.4375 743.8125,358.6563 743.9063,359.0625 C743.9688,359.4688 744,359.5938 744.1406,359.7188 C744.2813,359.8594 744.5156,359.9688 744.7344,359.9688 C745,359.9688 745.2656,359.8281 745.4375,359.6094 C745.5469,359.4531 745.5781,359.2656 745.5781,358.8438 L745.5781,357.4219 C745.5781,356.9844 745.5625,356.8594 745.4688,356.7031 C745.3125,356.4375 745.0313,356.2969 744.7344,356.2969 C744.4375,356.2969 744.2344,356.3906 744.0156,356.7031 L743.8438,356.625 Z "/><text fill="#000000" font-family="sans-serif" font-size="12" lengthAdjust="spacingAndGlyphs" textLength="65" x="755.5" y="365.1074">DataParser</text><line style="stroke: #A80036; stroke-width: 1.5;" x1="727.5" x2="822.5" y1="376.9531" y2="376.9531"/><line style="stroke: #A80036; stroke-width: 1.5;" x1="727.5" x2="822.5" y1="384.9531" y2="384.9531"/><!--MD5=[db12a1ab1b5c70918f2c1aa87b45e09a]
class Directions--><rect codeLine="50" fill="#FEFECE" filter="url(#f4tn5wwridcyr)" height="48" id="Directions" style="stroke: #A80036; stroke-width: 1.5;" width="93" x="552.5" y="924.4531"/><ellipse cx="567.5" cy="940.4531" fill="#ADD1B2" rx="11" ry="11" style="stroke: #A80036; stroke-width: 1.0;"/><path d="M569.8438,936.125 C568.9063,935.6875 568.3125,935.5469 567.4375,935.5469 C564.8125,935.5469 562.8125,937.625 562.8125,940.3438 L562.8125,941.4688 C562.8125,944.0469 564.9219,945.9375 567.8125,945.9375 C569.0313,945.9375 570.1875,945.6406 570.9375,945.0938 C571.5156,944.6875 571.8438,944.2344 571.8438,943.8438 C571.8438,943.3906 571.4531,943 570.9844,943 C570.7656,943 570.5625,943.0781 570.375,943.2656 C569.9219,943.75 569.9219,943.75 569.7344,943.8438 C569.3125,944.1094 568.625,944.2344 567.8594,944.2344 C565.8125,944.2344 564.5156,943.1406 564.5156,941.4375 L564.5156,940.3438 C564.5156,938.5625 565.7656,937.25 567.5,937.25 C568.0781,937.25 568.6875,937.4063 569.1563,937.6563 C569.6406,937.9375 569.8125,938.1563 569.9063,938.5625 C569.9688,938.9688 570,939.0938 570.1406,939.2188 C570.2813,939.3594 570.5156,939.4688 570.7344,939.4688 C571,939.4688 571.2656,939.3281 571.4375,939.1094 C571.5469,938.9531 571.5781,938.7656 571.5781,938.3438 L571.5781,936.9219 C571.5781,936.4844 571.5625,936.3594 571.4688,936.2031 C571.3125,935.9375 571.0313,935.7969 570.7344,935.7969 C570.4375,935.7969 570.2344,935.8906 570.0156,936.2031 L569.8438,936.125 Z "/><text fill="#000000" font-family="sans-serif" font-size="12" lengthAdjust="spacingAndGlyphs" textLength="61" x="581.5" y="944.6074">Directions</text><line style="stroke: #A80036; stroke-width: 1.5;" x1="553.5" x2="644.5" y1="956.4531" y2="956.4531"/><line style="stroke: #A80036; stroke-width: 1.5;" x1="553.5" x2="644.5" y1="964.4531" y2="964.4531"/><!--MD5=[e78d3bd29d68b8fbdb4aae8710e3db25]
class Simulator--><rect codeLine="51" fill="#FEFECE" filter="url(#f4tn5wwridcyr)" height="48" id="Simulator" style="stroke: #A80036; stroke-width: 1.5;" width="88" x="873" y="155.9531"/><ellipse cx="888" cy="171.9531" fill="#ADD1B2" rx="11" ry="11" style="stroke: #A80036; stroke-width: 1.0;"/><path d="M890.3438,167.625 C889.4063,167.1875 888.8125,167.0469 887.9375,167.0469 C885.3125,167.0469 883.3125,169.125 883.3125,171.8438 L883.3125,172.9688 C883.3125,175.5469 885.4219,177.4375 888.3125,177.4375 C889.5313,177.4375 890.6875,177.1406 891.4375,176.5938 C892.0156,176.1875 892.3438,175.7344 892.3438,175.3438 C892.3438,174.8906 891.9531,174.5 891.4844,174.5 C891.2656,174.5 891.0625,174.5781 890.875,174.7656 C890.4219,175.25 890.4219,175.25 890.2344,175.3438 C889.8125,175.6094 889.125,175.7344 888.3594,175.7344 C886.3125,175.7344 885.0156,174.6406 885.0156,172.9375 L885.0156,171.8438 C885.0156,170.0625 886.2656,168.75 888,168.75 C888.5781,168.75 889.1875,168.9063 889.6563,169.1563 C890.1406,169.4375 890.3125,169.6563 890.4063,170.0625 C890.4688,170.4688 890.5,170.5938 890.6406,170.7188 C890.7813,170.8594 891.0156,170.9688 891.2344,170.9688 C891.5,170.9688 891.7656,170.8281 891.9375,170.6094 C892.0469,170.4531 892.0781,170.2656 892.0781,169.8438 L892.0781,168.4219 C892.0781,167.9844 892.0625,167.8594 891.9688,167.7031 C891.8125,167.4375 891.5313,167.2969 891.2344,167.2969 C890.9375,167.2969 890.7344,167.3906 890.5156,167.7031 L890.3438,167.625 Z "/><text fill="#000000" font-family="sans-serif" font-size="12" lengthAdjust="spacingAndGlyphs" textLength="56" x="902" y="176.1074">Simulator</text><line style="stroke: #A80036; stroke-width: 1.5;" x1="874" x2="960" y1="187.9531" y2="187.9531"/><line style="stroke: #A80036; stroke-width: 1.5;" x1="874" x2="960" y1="195.9531" y2="195.9531"/><!--MD5=[f0c2b12f28f1e21456e453efee47df7d]
class GridSize--><rect codeLine="52" fill="#FEFECE" filter="url(#f4tn5wwridcyr)" height="48" id="GridSize" style="stroke: #A80036; stroke-width: 1.5;" width="83" x="435.5" y="540.4531"/><ellipse cx="450.5" cy="556.4531" fill="#ADD1B2" rx="11" ry="11" style="stroke: #A80036; stroke-width: 1.0;"/><path d="M452.8438,552.125 C451.9063,551.6875 451.3125,551.5469 450.4375,551.5469 C447.8125,551.5469 445.8125,553.625 445.8125,556.3438 L445.8125,557.4688 C445.8125,560.0469 447.9219,561.9375 450.8125,561.9375 C452.0313,561.9375 453.1875,561.6406 453.9375,561.0938 C454.5156,560.6875 454.8438,560.2344 454.8438,559.8438 C454.8438,559.3906 454.4531,559 453.9844,559 C453.7656,559 453.5625,559.0781 453.375,559.2656 C452.9219,559.75 452.9219,559.75 452.7344,559.8438 C452.3125,560.1094 451.625,560.2344 450.8594,560.2344 C448.8125,560.2344 447.5156,559.1406 447.5156,557.4375 L447.5156,556.3438 C447.5156,554.5625 448.7656,553.25 450.5,553.25 C451.0781,553.25 451.6875,553.4063 452.1563,553.6563 C452.6406,553.9375 452.8125,554.1563 452.9063,554.5625 C452.9688,554.9688 453,555.0938 453.1406,555.2188 C453.2813,555.3594 453.5156,555.4688 453.7344,555.4688 C454,555.4688 454.2656,555.3281 454.4375,555.1094 C454.5469,554.9531 454.5781,554.7656 454.5781,554.3438 L454.5781,552.9219 C454.5781,552.4844 454.5625,552.3594 454.4688,552.2031 C454.3125,551.9375 454.0313,551.7969 453.7344,551.7969 C453.4375,551.7969 453.2344,551.8906 453.0156,552.2031 L452.8438,552.125 Z "/><text fill="#000000" font-family="sans-serif" font-size="12" lengthAdjust="spacingAndGlyphs" textLength="51" x="464.5" y="560.6074">GridSize</text><line style="stroke: #A80036; stroke-width: 1.5;" x1="436.5" x2="517.5" y1="572.4531" y2="572.4531"/><line style="stroke: #A80036; stroke-width: 1.5;" x1="436.5" x2="517.5" y1="580.4531" y2="580.4531"/><!--MD5=[fea3dc74c7473bae0133d22265a91e2f]
class Cell--><rect codeLine="53" fill="#FEFECE" filter="url(#f4tn5wwridcyr)" height="48" id="Cell" style="stroke: #A80036; stroke-width: 1.5;" width="54" x="554" y="540.4531"/><ellipse cx="569" cy="556.4531" fill="#ADD1B2" rx="11" ry="11" style="stroke: #A80036; stroke-width: 1.0;"/><path d="M571.3438,552.125 C570.4063,551.6875 569.8125,551.5469 568.9375,551.5469 C566.3125,551.5469 564.3125,553.625 564.3125,556.3438 L564.3125,557.4688 C564.3125,560.0469 566.4219,561.9375 569.3125,561.9375 C570.5313,561.9375 571.6875,561.6406 572.4375,561.0938 C573.0156,560.6875 573.3438,560.2344 573.3438,559.8438 C573.3438,559.3906 572.9531,559 572.4844,559 C572.2656,559 572.0625,559.0781 571.875,559.2656 C571.4219,559.75 571.4219,559.75 571.2344,559.8438 C570.8125,560.1094 570.125,560.2344 569.3594,560.2344 C567.3125,560.2344 566.0156,559.1406 566.0156,557.4375 L566.0156,556.3438 C566.0156,554.5625 567.2656,553.25 569,553.25 C569.5781,553.25 570.1875,553.4063 570.6563,553.6563 C571.1406,553.9375 571.3125,554.1563 571.4063,554.5625 C571.4688,554.9688 571.5,555.0938 571.6406,555.2188 C571.7813,555.3594 572.0156,555.4688 572.2344,555.4688 C572.5,555.4688 572.7656,555.3281 572.9375,555.1094 C573.0469,554.9531 573.0781,554.7656 573.0781,554.3438 L573.0781,552.9219 C573.0781,552.4844 573.0625,552.3594 572.9688,552.2031 C572.8125,551.9375 572.5313,551.7969 572.2344,551.7969 C571.9375,551.7969 571.7344,551.8906 571.5156,552.2031 L571.3438,552.125 Z "/><text fill="#000000" font-family="sans-serif" font-size="12" lengthAdjust="spacingAndGlyphs" textLength="22" x="583" y="560.6074">Cell</text><line style="stroke: #A80036; stroke-width: 1.5;" x1="555" x2="607" y1="572.4531" y2="572.4531"/><line style="stroke: #A80036; stroke-width: 1.5;" x1="555" x2="607" y1="580.4531" y2="580.4531"/><!--MD5=[e6942bb3dc3af6df69a4b204b94b9e0a]
class Viewer--><rect codeLine="54" fill="#FEFECE" filter="url(#f4tn5wwridcyr)" height="48" id="Viewer" style="stroke: #A80036; stroke-width: 1.5;" width="74" x="996" y="155.9531"/><ellipse cx="1011" cy="171.9531" fill="#ADD1B2" rx="11" ry="11" style="stroke: #A80036; stroke-width: 1.0;"/><path d="M1013.3438,167.625 C1012.4063,167.1875 1011.8125,167.0469 1010.9375,167.0469 C1008.3125,167.0469 1006.3125,169.125 1006.3125,171.8438 L1006.3125,172.9688 C1006.3125,175.5469 1008.4219,177.4375 1011.3125,177.4375 C1012.5313,177.4375 1013.6875,177.1406 1014.4375,176.5938 C1015.0156,176.1875 1015.3438,175.7344 1015.3438,175.3438 C1015.3438,174.8906 1014.9531,174.5 1014.4844,174.5 C1014.2656,174.5 1014.0625,174.5781 1013.875,174.7656 C1013.4219,175.25 1013.4219,175.25 1013.2344,175.3438 C1012.8125,175.6094 1012.125,175.7344 1011.3594,175.7344 C1009.3125,175.7344 1008.0156,174.6406 1008.0156,172.9375 L1008.0156,171.8438 C1008.0156,170.0625 1009.2656,168.75 1011,168.75 C1011.5781,168.75 1012.1875,168.9063 1012.6563,169.1563 C1013.1406,169.4375 1013.3125,169.6563 1013.4063,170.0625 C1013.4688,170.4688 1013.5,170.5938 1013.6406,170.7188 C1013.7813,170.8594 1014.0156,170.9688 1014.2344,170.9688 C1014.5,170.9688 1014.7656,170.8281 1014.9375,170.6094 C1015.0469,170.4531 1015.0781,170.2656 1015.0781,169.8438 L1015.0781,168.4219 C1015.0781,167.9844 1015.0625,167.8594 1014.9688,167.7031 C1014.8125,167.4375 1014.5313,167.2969 1014.2344,167.2969 C1013.9375,167.2969 1013.7344,167.3906 1013.5156,167.7031 L1013.3438,167.625 Z "/><text fill="#000000" font-family="sans-serif" font-size="12" lengthAdjust="spacingAndGlyphs" textLength="42" x="1025" y="176.1074">Viewer</text><line style="stroke: #A80036; stroke-width: 1.5;" x1="997" x2="1069" y1="187.9531" y2="187.9531"/><line style="stroke: #A80036; stroke-width: 1.5;" x1="997" x2="1069" y1="195.9531" y2="195.9531"/><!--MD5=[55a63d344e63c69eff615f0e8fe333a4]
class DocoFactory--><rect codeLine="55" fill="#FEFECE" filter="url(#f4tn5wwridcyr)" height="99.2188" id="DocoFactory" style="stroke: #A80036; stroke-width: 1.5;" width="157" x="219.5" y="514.9531"/><ellipse cx="256.1" cy="530.9531" fill="#ADD1B2" rx="11" ry="11" style="stroke: #A80036; stroke-width: 1.0;"/><path d="M258.4438,526.625 C257.5063,526.1875 256.9125,526.0469 256.0375,526.0469 C253.4125,526.0469 251.4125,528.125 251.4125,530.8438 L251.4125,531.9688 C251.4125,534.5469 253.5219,536.4375 256.4125,536.4375 C257.6313,536.4375 258.7875,536.1406 259.5375,535.5938 C260.1156,535.1875 260.4438,534.7344 260.4438,534.3438 C260.4438,533.8906 260.0531,533.5 259.5844,533.5 C259.3656,533.5 259.1625,533.5781 258.975,533.7656 C258.5219,534.25 258.5219,534.25 258.3344,534.3438 C257.9125,534.6094 257.225,534.7344 256.4594,534.7344 C254.4125,534.7344 253.1156,533.6406 253.1156,531.9375 L253.1156,530.8438 C253.1156,529.0625 254.3656,527.75 256.1,527.75 C256.6781,527.75 257.2875,527.9063 257.7563,528.1563 C258.2406,528.4375 258.4125,528.6563 258.5063,529.0625 C258.5688,529.4688 258.6,529.5938 258.7406,529.7188 C258.8813,529.8594 259.1156,529.9688 259.3344,529.9688 C259.6,529.9688 259.8656,529.8281 260.0375,529.6094 C260.1469,529.4531 260.1781,529.2656 260.1781,528.8438 L260.1781,527.4219 C260.1781,526.9844 260.1625,526.8594 260.0688,526.7031 C259.9125,526.4375 259.6313,526.2969 259.3344,526.2969 C259.0375,526.2969 258.8344,526.3906 258.6156,526.7031 L258.4438,526.625 Z "/><text fill="#000000" font-family="sans-serif" font-size="12" lengthAdjust="spacingAndGlyphs" textLength="77" x="274.9" y="535.1074">DocoFactory</text><line style="stroke: #A80036; stroke-width: 1.5;" x1="220.5" x2="375.5" y1="546.9531" y2="546.9531"/><line style="stroke: #A80036; stroke-width: 1.5;" x1="220.5" x2="375.5" y1="554.9531" y2="554.9531"/><ellipse cx="230.5" cy="565.9531" fill="#84BE84" rx="3" ry="3" style="stroke: #038048; stroke-width: 1.0;"/><text fill="#000000" font-family="sans-serif" font-size="11" lengthAdjust="spacingAndGlyphs" textLength="116" x="239.5" y="569.1636">createDocoDefault()</text><ellipse cx="230.5" cy="578.7578" fill="#84BE84" rx="3" ry="3" style="stroke: #038048; stroke-width: 1.0;"/><text fill="#000000" font-family="sans-serif" font-size="11" lengthAdjust="spacingAndGlyphs" textLength="124" x="239.5" y="581.9683">createDocoDiagonal()</text><ellipse cx="230.5" cy="591.5625" fill="#84BE84" rx="3" ry="3" style="stroke: #038048; stroke-width: 1.0;"/><text fill="#000000" font-family="sans-serif" font-size="11" lengthAdjust="spacingAndGlyphs" textLength="131" x="239.5" y="594.7729">createDocoHorizontal()</text><ellipse cx="230.5" cy="604.3672" fill="#84BE84" rx="3" ry="3" style="stroke: #038048; stroke-width: 1.0;"/><text fill="#000000" font-family="sans-serif" font-size="11" lengthAdjust="spacingAndGlyphs" textLength="117" x="239.5" y="607.5776">createDocoVertical()</text><!--MD5=[e8a162c5bce2056132692cf1f01f8032]
class AbstractDoco--><rect codeLine="61" fill="#FEFECE" filter="url(#f4tn5wwridcyr)" height="48" id="AbstractDoco" style="stroke: #A80036; stroke-width: 1.5;" width="113" x="750.5" y="924.4531"/><ellipse cx="765.5" cy="940.4531" fill="#B4A7E5" rx="11" ry="11" style="stroke: #A80036; stroke-width: 1.0;"/><path d="M766.4531,937.2344 L768.1719,937.2344 C768.5625,937.2344 768.75,937.2031 768.875,937.125 C769.1406,936.9688 769.2813,936.6875 769.2813,936.3906 C769.2813,936.125 769.1719,935.8594 768.9375,935.6875 C768.7656,935.5781 768.625,935.5469 768.1719,935.5469 L763.0313,935.5469 C762.5938,935.5469 762.4688,935.5625 762.3125,935.6563 C762.0625,935.8125 761.9063,936.1094 761.9063,936.3906 C761.9063,936.6719 762.0469,936.9219 762.2656,937.0938 C762.4219,937.2031 762.6094,937.2344 763.0313,937.2344 L764.75,937.2344 L764.75,943.75 L763.0313,943.75 C762.5938,943.75 762.4688,943.7656 762.3125,943.875 C762.0625,944.0313 761.9063,944.3125 761.9063,944.6094 C761.9063,944.8594 762.0469,945.125 762.2656,945.2813 C762.4219,945.4063 762.625,945.4531 763.0313,945.4531 L768.1719,945.4531 C768.9219,945.4531 769.2813,945.1719 769.2813,944.6094 C769.2813,944.3281 769.1719,944.0781 768.9375,943.9063 C768.7656,943.7813 768.625,943.75 768.1719,943.75 L766.4531,943.75 L766.4531,937.2344 Z "/><text fill="#000000" font-family="sans-serif" font-size="12" font-style="italic" lengthAdjust="spacingAndGlyphs" textLength="81" x="779.5" y="944.6074">AbstractDoco</text><line style="stroke: #A80036; stroke-width: 1.5;" x1="751.5" x2="862.5" y1="956.4531" y2="956.4531"/><line style="stroke: #A80036; stroke-width: 1.5;" x1="751.5" x2="862.5" y1="964.4531" y2="964.4531"/><!--MD5=[953df660d60abfde2f7fd8a4b5dad129]
class DocoMovePatternDiagonal--><rect codeLine="75" fill="#FEFECE" filter="url(#f4tn5wwridcyr)" height="48" id="DocoMovePatternDiagonal" style="stroke: #A80036; stroke-width: 1.5;" width="190" x="7" y="1039.9531"/><ellipse cx="22" cy="1055.9531" fill="#ADD1B2" rx="11" ry="11" style="stroke: #A80036; stroke-width: 1.0;"/><path d="M24.3438,1051.625 C23.4063,1051.1875 22.8125,1051.0469 21.9375,1051.0469 C19.3125,1051.0469 17.3125,1053.125 17.3125,1055.8438 L17.3125,1056.9688 C17.3125,1059.5469 19.4219,1061.4375 22.3125,1061.4375 C23.5313,1061.4375 24.6875,1061.1406 25.4375,1060.5938 C26.0156,1060.1875 26.3438,1059.7344 26.3438,1059.3438 C26.3438,1058.8906 25.9531,1058.5 25.4844,1058.5 C25.2656,1058.5 25.0625,1058.5781 24.875,1058.7656 C24.4219,1059.25 24.4219,1059.25 24.2344,1059.3438 C23.8125,1059.6094 23.125,1059.7344 22.3594,1059.7344 C20.3125,1059.7344 19.0156,1058.6406 19.0156,1056.9375 L19.0156,1055.8438 C19.0156,1054.0625 20.2656,1052.75 22,1052.75 C22.5781,1052.75 23.1875,1052.9063 23.6563,1053.1563 C24.1406,1053.4375 24.3125,1053.6563 24.4063,1054.0625 C24.4688,1054.4688 24.5,1054.5938 24.6406,1054.7188 C24.7813,1054.8594 25.0156,1054.9688 25.2344,1054.9688 C25.5,1054.9688 25.7656,1054.8281 25.9375,1054.6094 C26.0469,1054.4531 26.0781,1054.2656 26.0781,1053.8438 L26.0781,1052.4219 C26.0781,1051.9844 26.0625,1051.8594 25.9688,1051.7031 C25.8125,1051.4375 25.5313,1051.2969 25.2344,1051.2969 C24.9375,1051.2969 24.7344,1051.3906 24.5156,1051.7031 L24.3438,1051.625 Z "/><text fill="#000000" font-family="sans-serif" font-size="12" lengthAdjust="spacingAndGlyphs" textLength="158" x="36" y="1060.1074">DocoMovePatternDiagonal</text><line style="stroke: #A80036; stroke-width: 1.5;" x1="8" x2="196" y1="1071.9531" y2="1071.9531"/><line style="stroke: #A80036; stroke-width: 1.5;" x1="8" x2="196" y1="1079.9531" y2="1079.9531"/><!--MD5=[6360b100a998df06bfac29e4baad8cf8]
class DocoMovePatternHorizontal--><rect codeLine="76" fill="#FEFECE" filter="url(#f4tn5wwridcyr)" height="48" id="DocoMovePatternHorizontal" style="stroke: #A80036; stroke-width: 1.5;" width="199" x="232.5" y="1039.9531"/><ellipse cx="247.5" cy="1055.9531" fill="#ADD1B2" rx="11" ry="11" style="stroke: #A80036; stroke-width: 1.0;"/><path d="M249.8438,1051.625 C248.9063,1051.1875 248.3125,1051.0469 247.4375,1051.0469 C244.8125,1051.0469 242.8125,1053.125 242.8125,1055.8438 L242.8125,1056.9688 C242.8125,1059.5469 244.9219,1061.4375 247.8125,1061.4375 C249.0313,1061.4375 250.1875,1061.1406 250.9375,1060.5938 C251.5156,1060.1875 251.8438,1059.7344 251.8438,1059.3438 C251.8438,1058.8906 251.4531,1058.5 250.9844,1058.5 C250.7656,1058.5 250.5625,1058.5781 250.375,1058.7656 C249.9219,1059.25 249.9219,1059.25 249.7344,1059.3438 C249.3125,1059.6094 248.625,1059.7344 247.8594,1059.7344 C245.8125,1059.7344 244.5156,1058.6406 244.5156,1056.9375 L244.5156,1055.8438 C244.5156,1054.0625 245.7656,1052.75 247.5,1052.75 C248.0781,1052.75 248.6875,1052.9063 249.1563,1053.1563 C249.6406,1053.4375 249.8125,1053.6563 249.9063,1054.0625 C249.9688,1054.4688 250,1054.5938 250.1406,1054.7188 C250.2813,1054.8594 250.5156,1054.9688 250.7344,1054.9688 C251,1054.9688 251.2656,1054.8281 251.4375,1054.6094 C251.5469,1054.4531 251.5781,1054.2656 251.5781,1053.8438 L251.5781,1052.4219 C251.5781,1051.9844 251.5625,1051.8594 251.4688,1051.7031 C251.3125,1051.4375 251.0313,1051.2969 250.7344,1051.2969 C250.4375,1051.2969 250.2344,1051.3906 250.0156,1051.7031 L249.8438,1051.625 Z "/><text fill="#000000" font-family="sans-serif" font-size="12" lengthAdjust="spacingAndGlyphs" textLength="167" x="261.5" y="1060.1074">DocoMovePatternHorizontal</text><line style="stroke: #A80036; stroke-width: 1.5;" x1="233.5" x2="430.5" y1="1071.9531" y2="1071.9531"/><line style="stroke: #A80036; stroke-width: 1.5;" x1="233.5" x2="430.5" y1="1079.9531" y2="1079.9531"/><!--MD5=[bbe87360671672d218cc589a7957fb68]
class DocoMovePatternVertical--><rect codeLine="77" fill="#FEFECE" filter="url(#f4tn5wwridcyr)" height="48" id="DocoMovePatternVertical" style="stroke: #A80036; stroke-width: 1.5;" width="183" x="466.5" y="1039.9531"/><ellipse cx="481.5" cy="1055.9531" fill="#ADD1B2" rx="11" ry="11" style="stroke: #A80036; stroke-width: 1.0;"/><path d="M483.8438,1051.625 C482.9063,1051.1875 482.3125,1051.0469 481.4375,1051.0469 C478.8125,1051.0469 476.8125,1053.125 476.8125,1055.8438 L476.8125,1056.9688 C476.8125,1059.5469 478.9219,1061.4375 481.8125,1061.4375 C483.0313,1061.4375 484.1875,1061.1406 484.9375,1060.5938 C485.5156,1060.1875 485.8438,1059.7344 485.8438,1059.3438 C485.8438,1058.8906 485.4531,1058.5 484.9844,1058.5 C484.7656,1058.5 484.5625,1058.5781 484.375,1058.7656 C483.9219,1059.25 483.9219,1059.25 483.7344,1059.3438 C483.3125,1059.6094 482.625,1059.7344 481.8594,1059.7344 C479.8125,1059.7344 478.5156,1058.6406 478.5156,1056.9375 L478.5156,1055.8438 C478.5156,1054.0625 479.7656,1052.75 481.5,1052.75 C482.0781,1052.75 482.6875,1052.9063 483.1563,1053.1563 C483.6406,1053.4375 483.8125,1053.6563 483.9063,1054.0625 C483.9688,1054.4688 484,1054.5938 484.1406,1054.7188 C484.2813,1054.8594 484.5156,1054.9688 484.7344,1054.9688 C485,1054.9688 485.2656,1054.8281 485.4375,1054.6094 C485.5469,1054.4531 485.5781,1054.2656 485.5781,1053.8438 L485.5781,1052.4219 C485.5781,1051.9844 485.5625,1051.8594 485.4688,1051.7031 C485.3125,1051.4375 485.0313,1051.2969 484.7344,1051.2969 C484.4375,1051.2969 484.2344,1051.3906 484.0156,1051.7031 L483.8438,1051.625 Z "/><text fill="#000000" font-family="sans-serif" font-size="12" lengthAdjust="spacingAndGlyphs" textLength="151" x="495.5" y="1060.1074">DocoMovePatternVertical</text><line style="stroke: #A80036; stroke-width: 1.5;" x1="467.5" x2="648.5" y1="1071.9531" y2="1071.9531"/><line style="stroke: #A80036; stroke-width: 1.5;" x1="467.5" x2="648.5" y1="1079.9531" y2="1079.9531"/><!--MD5=[3378331b0cfcfc7087d2c1829356362f]
class DocoMovePatternDefault--><rect codeLine="78" fill="#FEFECE" filter="url(#f4tn5wwridcyr)" height="48" id="DocoMovePatternDefault" style="stroke: #A80036; stroke-width: 1.5;" width="180" x="685" y="1039.9531"/><ellipse cx="700" cy="1055.9531" fill="#ADD1B2" rx="11" ry="11" style="stroke: #A80036; stroke-width: 1.0;"/><path d="M702.3438,1051.625 C701.4063,1051.1875 700.8125,1051.0469 699.9375,1051.0469 C697.3125,1051.0469 695.3125,1053.125 695.3125,1055.8438 L695.3125,1056.9688 C695.3125,1059.5469 697.4219,1061.4375 700.3125,1061.4375 C701.5313,1061.4375 702.6875,1061.1406 703.4375,1060.5938 C704.0156,1060.1875 704.3438,1059.7344 704.3438,1059.3438 C704.3438,1058.8906 703.9531,1058.5 703.4844,1058.5 C703.2656,1058.5 703.0625,1058.5781 702.875,1058.7656 C702.4219,1059.25 702.4219,1059.25 702.2344,1059.3438 C701.8125,1059.6094 701.125,1059.7344 700.3594,1059.7344 C698.3125,1059.7344 697.0156,1058.6406 697.0156,1056.9375 L697.0156,1055.8438 C697.0156,1054.0625 698.2656,1052.75 700,1052.75 C700.5781,1052.75 701.1875,1052.9063 701.6563,1053.1563 C702.1406,1053.4375 702.3125,1053.6563 702.4063,1054.0625 C702.4688,1054.4688 702.5,1054.5938 702.6406,1054.7188 C702.7813,1054.8594 703.0156,1054.9688 703.2344,1054.9688 C703.5,1054.9688 703.7656,1054.8281 703.9375,1054.6094 C704.0469,1054.4531 704.0781,1054.2656 704.0781,1053.8438 L704.0781,1052.4219 C704.0781,1051.9844 704.0625,1051.8594 703.9688,1051.7031 C703.8125,1051.4375 703.5313,1051.2969 703.2344,1051.2969 C702.9375,1051.2969 702.7344,1051.3906 702.5156,1051.7031 L702.3438,1051.625 Z "/><text fill="#000000" font-family="sans-serif" font-size="12" lengthAdjust="spacingAndGlyphs" textLength="148" x="714" y="1060.1074">DocoMovePatternDefault</text><line style="stroke: #A80036; stroke-width: 1.5;" x1="686" x2="864" y1="1071.9531" y2="1071.9531"/><line style="stroke: #A80036; stroke-width: 1.5;" x1="686" x2="864" y1="1079.9531" y2="1079.9531"/><!--MD5=[b26cc115b4e81c0ee916f39528847cff]
reverse link CellGrid to Cell--><path codeLine="67" d="M550.759,450.9201 C559.47,483.3381 568.835,518.1851 574.797,540.3711 " fill="none" id="CellGrid-backto-Cell" style="stroke: #A80036; stroke-width: 1.0;"/><polygon fill="#A80036" points="547.333,438.1741,545.0268,445.0065,550.4465,449.7632,552.7528,442.9308,547.333,438.1741" style="stroke: #A80036; stroke-width: 1.0;"/><text fill="#000000" font-family="sans-serif" font-size="13" lengthAdjust="spacingAndGlyphs" textLength="8" x="540.6991" y="457.5773">1</text><text fill="#000000" font-family="sans-serif" font-size="13" lengthAdjust="spacingAndGlyphs" textLength="7" x="565.3106" y="529.3621">*</text><!--MD5=[a2584ea92d3e2bc0d8a5a1d36531d964]
reverse link CellGrid to GridSize--><path codeLine="68" d="M507.241,450.9201 C498.53,483.3381 489.165,518.1851 483.203,540.3711 " fill="none" id="CellGrid-backto-GridSize" style="stroke: #A80036; stroke-width: 1.0;"/><polygon fill="#A80036" points="510.667,438.1741,505.2472,442.9308,507.5535,449.7632,512.9732,445.0065,510.667,438.1741" style="stroke: #A80036; stroke-width: 1.0;"/><text fill="#000000" font-family="sans-serif" font-size="13" lengthAdjust="spacingAndGlyphs" textLength="8" x="500.5384" y="457.5773">1</text><text fill="#000000" font-family="sans-serif" font-size="13" lengthAdjust="spacingAndGlyphs" textLength="8" x="475.7675" y="529.3621">1</text><!--MD5=[18e040d26ec6078dbe42436f88e7f37f]
reverse link WorldBoard to CellGrid--><path codeLine="69" d="M654.644,232.9221 C635.427,253.5751 613.053,277.6211 592.555,299.6501 " fill="none" id="WorldBoard-backto-CellGrid" style="stroke: #A80036; stroke-width: 1.0;"/><polygon fill="#FFFFFF" points="663.517,223.3861,656.5014,225.0538,655.3425,232.1712,662.3581,230.5035,663.517,223.3861" style="stroke: #A80036; stroke-width: 1.0;"/><text fill="#000000" font-family="sans-serif" font-size="13" lengthAdjust="spacingAndGlyphs" textLength="8" x="648.5869" y="243.5481">1</text><text fill="#000000" font-family="sans-serif" font-size="13" lengthAdjust="spacingAndGlyphs" textLength="8" x="590.6966" y="288.8225">1</text><!--MD5=[a7ba8c4af5aa908a299e4683d79b703f]
reverse link WorldBoard to DataParser--><path codeLine="70" d="M724.106,235.7701 C738.064,272.0231 755.649,317.6941 766.07,344.7611 " fill="none" id="WorldBoard-backto-DataParser" style="stroke: #A80036; stroke-width: 1.0;"/><polygon fill="#FFFFFF" points="719.338,223.3861,717.7613,230.4227,723.6502,234.5846,725.2269,227.548,719.338,223.3861" style="stroke: #A80036; stroke-width: 1.0;"/><text fill="#000000" font-family="sans-serif" font-size="13" lengthAdjust="spacingAndGlyphs" textLength="8" x="713.3044" y="243.5481">1</text><text fill="#000000" font-family="sans-serif" font-size="13" lengthAdjust="spacingAndGlyphs" textLength="8" x="754.7567" y="333.724">1</text><!--MD5=[cbc16b2dfa2871f325c539562e780c8f]
reverse link main to Simulator--><path codeLine="71" d="M917,89.2341 C917,110.5811 917,136.9511 917,155.5621 " fill="none" id="main-backto-Simulator" style="stroke: #A80036; stroke-width: 1.0;"/><polygon fill="#FFFFFF" points="917,76.0631,913,82.0631,917,88.0631,921,82.0631,917,76.0631" style="stroke: #A80036; stroke-width: 1.0;"/><text fill="#000000" font-family="sans-serif" font-size="13" lengthAdjust="spacingAndGlyphs" textLength="8" x="908.025" y="95.8511">1</text><text fill="#000000" font-family="sans-serif" font-size="13" lengthAdjust="spacingAndGlyphs" textLength="8" x="908.025" y="144.8718">1</text><!--MD5=[cc75d1839affd3807095e648c6fc98f0]
reverse link Doco to Directions--><path codeLine="73" d="M576.172,853.8081 C582.491,879.7301 588.901,906.0261 593.313,924.1251 " fill="none" id="Doco-backto-Directions" style="stroke: #A80036; stroke-width: 1.0;"/><polygon fill="#A80036" points="573.087,841.1511,570.6217,847.9277,575.9288,852.8098,578.3941,846.0332,573.087,841.1511" style="stroke: #A80036; stroke-width: 1.0;"/><text fill="#000000" font-family="sans-serif" font-size="13" lengthAdjust="spacingAndGlyphs" textLength="8" x="566.4737" y="861.3436">1</text><text fill="#000000" font-family="sans-serif" font-size="13" lengthAdjust="spacingAndGlyphs" textLength="8" x="582.9518" y="913.4501">1</text><!--MD5=[92ed2aded6a3c34108ef85f4e0027f4d]
link Doco to AbstractDoco--><path codeLine="74" d="M658.589,841.1511 C693.102,865.8711 729.933,892.2521 758.27,912.5491 " fill="none" id="Doco-to-AbstractDoco" style="stroke: #A80036; stroke-width: 1.0; stroke-dasharray: 7.0,7.0;"/><polygon fill="none" points="762.536,906.9941,774.719,924.3311,754.384,918.3761,762.536,906.9941" style="stroke: #A80036; stroke-width: 1.0;"/><text fill="#000000" font-family="sans-serif" font-size="13" lengthAdjust="spacingAndGlyphs" textLength="76" x="720" y="884.02">implements</text><!--MD5=[1f0157b231da76f6e6b57ec3eeb89bdb]
reverse link DocoMoveStrategy to DocoMovePatternDiagonal--><path d="M353.165,979.8421 C296.147,998.709 224.025,1022.5745 171.708,1039.8864 " fill="none" id="DocoMoveStrategy-backto-DocoMovePatternDiagonal" style="stroke: #A80036; stroke-width: 1.0;"/><polygon fill="none" points="351.072,973.1611,372.259,973.5231,355.47,986.4521,351.072,973.1611" style="stroke: #A80036; stroke-width: 1.0;"/><!--MD5=[11df688a899def2997fb895d3886b9ec]
reverse link DocoMoveStrategy to DocoMovePatternHorizontal--><path d="M401.164,993.4829 C385.487,1009.229 368.439,1026.3527 355.191,1039.6593 " fill="none" id="DocoMoveStrategy-backto-DocoMovePatternHorizontal" style="stroke: #A80036; stroke-width: 1.0;"/><polygon fill="none" points="396.534,988.2121,415.606,978.9771,406.455,998.0898,396.534,988.2121" style="stroke: #A80036; stroke-width: 1.0;"/><!--MD5=[4240038fbbcf0c8286a7b0b871346011]
reverse link DocoMoveStrategy to DocoMovePatternVertical--><path d="M488.836,993.4829 C504.513,1009.229 521.561,1026.3527 534.809,1039.6593 " fill="none" id="DocoMoveStrategy-backto-DocoMovePatternVertical" style="stroke: #A80036; stroke-width: 1.0;"/><polygon fill="none" points="483.545,998.0898,474.394,978.9771,493.466,988.2121,483.545,998.0898" style="stroke: #A80036; stroke-width: 1.0;"/><!--MD5=[b41af3994b5f0c1b516cadba51ecb051]
reverse link DocoMoveStrategy to DocoMovePatternDefault--><path d="M536.804,981.0281 C591.111,999.7064 658.685,1022.9479 707.973,1039.9 " fill="none" id="DocoMoveStrategy-backto-DocoMovePatternDefault" style="stroke: #A80036; stroke-width: 1.0;"/><polygon fill="none" points="534.464,987.6261,517.828,974.5021,539.018,974.3871,534.464,987.6261" style="stroke: #A80036; stroke-width: 1.0;"/><!--MD5=[241324ec1b7ac8ac4cc8cc9d24bd6b02]
reverse link Doco to DocoMoveStrategy--><path d="M499.331,858.3021 C486.241,879.7811 473.201,901.1781 463.179,917.6231 " fill="none" id="Doco-backto-DocoMoveStrategy" style="stroke: #A80036; stroke-width: 1.0;"/><polygon fill="none" points="493.397,854.5861,509.783,841.1511,505.352,861.8721,493.397,854.5861" style="stroke: #A80036; stroke-width: 1.0;"/><!--MD5=[76f71ad5d52f84e9a900093493dee497]
reverse link AbstractSimpleDocoFactory to DocoFactory--><path codeLine="80" d="M252.334,444.0421 C261.398,467.7431 271.197,493.3671 279.385,514.7781 " fill="none" id="AbstractSimpleDocoFactory-backto-DocoFactory" style="stroke: #A80036; stroke-width: 1.0; stroke-dasharray: 7.0,7.0;"/><polygon fill="none" points="245.712,446.3241,245.106,425.1431,258.789,441.3241,245.712,446.3241" style="stroke: #A80036; stroke-width: 1.0;"/><text fill="#000000" font-family="sans-serif" font-size="13" lengthAdjust="spacingAndGlyphs" textLength="76" x="269" y="481.02">implements</text><!--MD5=[c7aac155b2116f592794458169c7f8a8]
link DocoFactory to Doco--><path codeLine="81" d="M360.541,614.0011 C388.98,636.0771 423.332,662.7441 455.203,687.4841 " fill="none" id="DocoFactory-to-Doco" style="stroke: #A80036; stroke-width: 1.0; stroke-dasharray: 7.0,7.0;"/><polygon fill="#A80036" points="459.48,690.8041,454.8242,682.1252,455.5306,687.7378,449.9181,688.4442,459.48,690.8041" style="stroke: #A80036; stroke-width: 1.0;"/><text fill="#000000" font-family="sans-serif" font-size="13" lengthAdjust="spacingAndGlyphs" textLength="48" x="420" y="657.02">creates</text><!--MD5=[f50db1876ba37b862979ca59254019d6]
link WorldBoard to AbstractDoco--><path codeLine="83" d="M777.801,223.1011 C824.961,255.7631 877,305.8691 877,367.9531 C877,367.9531 877,367.9531 877,766.9531 C877,824.3701 845.829,885.5341 825.089,919.8761 " fill="none" id="WorldBoard-to-AbstractDoco" style="stroke: #A80036; stroke-width: 1.0; stroke-dasharray: 7.0,7.0;"/><polygon fill="#A80036" points="822.362,924.3371,830.4698,918.7458,824.9705,920.0715,823.6448,914.5722,822.362,924.3371" style="stroke: #A80036; stroke-width: 1.0;"/><text fill="#000000" font-family="sans-serif" font-size="13" lengthAdjust="spacingAndGlyphs" textLength="30" x="878" y="569.02">uses</text><!--MD5=[0768ded674f5a9a09159fa03b0bd1198]
link WorldBoard to AbstractSimpleDocoFactory--><path codeLine="84" d="M568.127,220.2171 C501.189,241.2261 419.724,269.1081 349,299.9531 C341.499,303.2241 333.846,306.7881 326.207,310.5131 " fill="none" id="WorldBoard-to-AbstractSimpleDocoFactory" style="stroke: #A80036; stroke-width: 1.0; stroke-dasharray: 7.0,7.0;"/><polygon fill="#A80036" points="321.453,312.8521,331.2944,312.4678,325.9393,310.6447,327.7624,305.2897,321.453,312.8521" style="stroke: #A80036; stroke-width: 1.0;"/><text fill="#000000" font-family="sans-serif" font-size="13" lengthAdjust="spacingAndGlyphs" textLength="30" x="465" y="266.02">uses</text><!--MD5=[484763531718cbe400e67e4070c28440]
reverse link main to Viewer--><path codeLine="87" d="M941.781,79.8731 C962.489,102.3641 991.721,134.1151 1011.47,155.5621 " fill="none" id="main-backto-Viewer" style="stroke: #A80036; stroke-width: 1.0;"/><polygon fill="#A80036" points="938.276,76.0631,941.4277,85.3941,941.6621,79.7421,947.3141,79.9764,938.276,76.0631" style="stroke: #A80036; stroke-width: 1.0;"/><!--MD5=[5705628357f4f23738aea87aebe128a9]
reverse link main to WorldBoard--><path codeLine="88" d="M882.249,73.4131 C853.209,90.5121 810.842,115.4571 774.589,136.8021 " fill="none" id="main-backto-WorldBoard" style="stroke: #A80036; stroke-width: 1.0;"/><polygon fill="#A80036" points="886.793,70.7431,877.0074,71.8574,882.483,73.2777,881.0627,78.7534,886.793,70.7431" style="stroke: #A80036; stroke-width: 1.0;"/><!--MD5=[aa58bb59c17969947a909556c482be81]
@startuml
title PA-1: Class Outline


interface DocoMoveStrategy
{
    +moveStrategy()
}

class Doco 
{
    -*moveStrategy : DocoMoveStrategy
    -direction : pair string pair int
    -position : pair int
    +adjoined_cells : vector pair int
    +adjoined_occupied_cells : vector pair int
    +adjoined_food_cells : vector pair int
    +move_options : vector pair int
    +move(int world_w, int world_h)
}

interface AbstractSimpleDocoFactory
{
    +note- -implemented_as_singleton
    +createDocoDefault()
    +createDocoDiagonal()
    +createDocoHorizontal()
    +createDocoVertical()
}

class CellGrid 
{
    #my_grid_size : GridSize
    #char_matrix :  vector<vector<char> >
    #temp_adjoined_cells :  vector<pair<int,int> >
    +cell_matrix : vector<vector<Cell> >
    +findAjoinedCells(int, int) : vector<pair<int,int> >
    +findAjoinedCellsFood() :  vector<pair<int,int> >
    +findAdjoinedOccupiedCells() : vector<pair<int,int> >
}

class WorldBoard 
{
    -food_positions : vector<pair<int, int> >
    -obstacle_positions: vector<pair<int, int> >
    +doco_vect : vector<Doco>
}

class main
class DataParser 
class Directions 
class Simulator 
class GridSize 
class Cell 
class Viewer
class DocoFactory {
    +createDocoDefault()
    +createDocoDiagonal()
    +createDocoHorizontal()
    +createDocoVertical()
}
interface AbstractDoco 
class DocoMovePatternDiagonal 
class DocoMovePatternHorizontal 
class DocoMovePatternVertical 
class DocoMovePatternDefault

CellGrid "1" *-down- "*" Cell
CellGrid "1" *-down- "1" GridSize
WorldBoard "1" o-down- "1" CellGrid
WorldBoard "1" o- - "1" DataParser
main "1" o- - "1" Simulator

Doco "1" *- - "1" Directions
Doco ..|> AbstractDoco : implements
class DocoMovePatternDiagonal extends DocoMoveStrategy
class DocoMovePatternHorizontal extends DocoMoveStrategy
class DocoMovePatternVertical extends DocoMoveStrategy 
class DocoMovePatternDefault extends DocoMoveStrategy
interface DocoMoveStrategy extends Doco
AbstractSimpleDocoFactory <|.. DocoFactory : implements
DocoFactory ..> Doco : creates

WorldBoard ..> AbstractDoco : uses
WorldBoard ..> AbstractSimpleDocoFactory : uses


main <- - Viewer
main <- - WorldBoard
@enduml

PlantUML version 1.2020.20beta2(Unknown compile time)
(GPL source distribution)
Java Runtime: Java(TM) SE Runtime Environment
JVM: Java HotSpot(TM) 64-Bit Server VM
Default Encoding: UTF-8
Language: en
Country: US
--></g></svg>