<?xml version="1.0" encoding="UTF-8" standalone="no"?><svg xmlns="http://www.w3.org/2000/svg" xmlns:xlink="http://www.w3.org/1999/xlink" contentScriptType="application/ecmascript" contentStyleType="text/css" height="740px" preserveAspectRatio="none" style="width:1331px;height:740px;" version="1.1" viewBox="0 0 1331 740" width="1331px" zoomAndPan="magnify"><defs><filter height="300%" id="f1awenmy82rxhe" width="300%" x="-1" y="-1"><feGaussianBlur result="blurOut" stdDeviation="2.0"/><feColorMatrix in="blurOut" result="blurOut2" type="matrix" values="0 0 0 0 0 0 0 0 0 0 0 0 0 0 0 0 0 0 .4 0"/><feOffset dx="4.0" dy="4.0" in="blurOut2" result="blurOut3"/><feBlend in="SourceGraphic" in2="blurOut3" mode="normal"/></filter></defs><g><text fill="#000000" font-family="sans-serif" font-size="18" lengthAdjust="spacingAndGlyphs" textLength="174" x="572.0991" y="16.708">PA-2: Class Outline</text><!--MD5=[4bc48d7f7285b4bb8e927ddab08b7c57]
class DocoMoveStrategy--><rect codeLine="3" fill="#FEFECE" filter="url(#f1awenmy82rxhe)" height="73.6094" id="DocoMoveStrategy" style="stroke: #A80036; stroke-width: 1.5;" width="145" x="488.2012" y="402.9531"/><ellipse cx="503.2012" cy="418.9531" fill="#B4A7E5" rx="11" ry="11" style="stroke: #A80036; stroke-width: 1.0;"/><path d="M504.1543,415.7344 L505.8731,415.7344 C506.2637,415.7344 506.4512,415.7031 506.5762,415.625 C506.8418,415.4688 506.9825,415.1875 506.9825,414.8906 C506.9825,414.625 506.8731,414.3594 506.6387,414.1875 C506.4668,414.0781 506.3262,414.0469 505.8731,414.0469 L500.7325,414.0469 C500.295,414.0469 500.17,414.0625 500.0137,414.1563 C499.7637,414.3125 499.6075,414.6094 499.6075,414.8906 C499.6075,415.1719 499.7481,415.4219 499.9668,415.5938 C500.1231,415.7031 500.3106,415.7344 500.7325,415.7344 L502.4512,415.7344 L502.4512,422.25 L500.7325,422.25 C500.295,422.25 500.17,422.2656 500.0137,422.375 C499.7637,422.5313 499.6075,422.8125 499.6075,423.1094 C499.6075,423.3594 499.7481,423.625 499.9668,423.7813 C500.1231,423.9063 500.3262,423.9531 500.7325,423.9531 L505.8731,423.9531 C506.6231,423.9531 506.9825,423.6719 506.9825,423.1094 C506.9825,422.8281 506.8731,422.5781 506.6387,422.4063 C506.4668,422.2813 506.3262,422.25 505.8731,422.25 L504.1543,422.25 L504.1543,415.7344 Z "/><text fill="#000000" font-family="sans-serif" font-size="12" font-style="italic" lengthAdjust="spacingAndGlyphs" textLength="113" x="517.2012" y="423.1074">DocoMoveStrategy</text><line style="stroke: #A80036; stroke-width: 1.5;" x1="489.2012" x2="632.2012" y1="434.9531" y2="434.9531"/><line style="stroke: #A80036; stroke-width: 1.5;" x1="489.2012" x2="632.2012" y1="442.9531" y2="442.9531"/><ellipse cx="499.2012" cy="453.9531" fill="#84BE84" rx="3" ry="3" style="stroke: #038048; stroke-width: 1.0;"/><text fill="#000000" font-family="sans-serif" font-size="11" lengthAdjust="spacingAndGlyphs" textLength="90" x="508.2012" y="457.1636">moveStrategy()</text><ellipse cx="499.2012" cy="466.7578" fill="#84BE84" rx="3" ry="3" style="stroke: #038048; stroke-width: 1.0;"/><text fill="#000000" font-family="sans-serif" font-size="11" lengthAdjust="spacingAndGlyphs" textLength="116" x="508.2012" y="469.9683">avoidanceStrategy()</text><!--MD5=[98ae4333f7777cdc77f78d1b8db6e485]
class Doco--><rect codeLine="9" fill="#FEFECE" filter="url(#f1awenmy82rxhe)" height="48" id="Doco" style="stroke: #A80036; stroke-width: 1.5;" width="64" x="278.7012" y="277.9531"/><ellipse cx="293.7012" cy="293.9531" fill="#ADD1B2" rx="11" ry="11" style="stroke: #A80036; stroke-width: 1.0;"/><path d="M296.045,289.625 C295.1075,289.1875 294.5137,289.0469 293.6387,289.0469 C291.0137,289.0469 289.0137,291.125 289.0137,293.8438 L289.0137,294.9688 C289.0137,297.5469 291.1231,299.4375 294.0137,299.4375 C295.2325,299.4375 296.3887,299.1406 297.1387,298.5938 C297.7168,298.1875 298.045,297.7344 298.045,297.3438 C298.045,296.8906 297.6543,296.5 297.1856,296.5 C296.9668,296.5 296.7637,296.5781 296.5762,296.7656 C296.1231,297.25 296.1231,297.25 295.9356,297.3438 C295.5137,297.6094 294.8262,297.7344 294.0606,297.7344 C292.0137,297.7344 290.7168,296.6406 290.7168,294.9375 L290.7168,293.8438 C290.7168,292.0625 291.9668,290.75 293.7012,290.75 C294.2793,290.75 294.8887,290.9063 295.3575,291.1563 C295.8418,291.4375 296.0137,291.6563 296.1075,292.0625 C296.17,292.4688 296.2012,292.5938 296.3418,292.7188 C296.4825,292.8594 296.7168,292.9688 296.9356,292.9688 C297.2012,292.9688 297.4668,292.8281 297.6387,292.6094 C297.7481,292.4531 297.7793,292.2656 297.7793,291.8438 L297.7793,290.4219 C297.7793,289.9844 297.7637,289.8594 297.67,289.7031 C297.5137,289.4375 297.2325,289.2969 296.9356,289.2969 C296.6387,289.2969 296.4356,289.3906 296.2168,289.7031 L296.045,289.625 Z "/><text fill="#000000" font-family="sans-serif" font-size="12" lengthAdjust="spacingAndGlyphs" textLength="32" x="307.7012" y="298.1074">Doco</text><line style="stroke: #A80036; stroke-width: 1.5;" x1="279.7012" x2="341.7012" y1="309.9531" y2="309.9531"/><line style="stroke: #A80036; stroke-width: 1.5;" x1="279.7012" x2="341.7012" y1="317.9531" y2="317.9531"/><!--MD5=[75cea4b4dffcf7706260da2197a7b9f3]
class AbstractSimpleDocoFactory--><rect codeLine="14" fill="#FEFECE" filter="url(#f1awenmy82rxhe)" height="48" id="AbstractSimpleDocoFactory" style="stroke: #A80036; stroke-width: 1.5;" width="199" x="336.2012" y="152.9531"/><ellipse cx="351.2012" cy="168.9531" fill="#B4A7E5" rx="11" ry="11" style="stroke: #A80036; stroke-width: 1.0;"/><path d="M352.1543,165.7344 L353.8731,165.7344 C354.2637,165.7344 354.4512,165.7031 354.5762,165.625 C354.8418,165.4688 354.9825,165.1875 354.9825,164.8906 C354.9825,164.625 354.8731,164.3594 354.6387,164.1875 C354.4668,164.0781 354.3262,164.0469 353.8731,164.0469 L348.7325,164.0469 C348.295,164.0469 348.17,164.0625 348.0137,164.1563 C347.7637,164.3125 347.6075,164.6094 347.6075,164.8906 C347.6075,165.1719 347.7481,165.4219 347.9668,165.5938 C348.1231,165.7031 348.3106,165.7344 348.7325,165.7344 L350.4512,165.7344 L350.4512,172.25 L348.7325,172.25 C348.295,172.25 348.17,172.2656 348.0137,172.375 C347.7637,172.5313 347.6075,172.8125 347.6075,173.1094 C347.6075,173.3594 347.7481,173.625 347.9668,173.7813 C348.1231,173.9063 348.3262,173.9531 348.7325,173.9531 L353.8731,173.9531 C354.6231,173.9531 354.9825,173.6719 354.9825,173.1094 C354.9825,172.8281 354.8731,172.5781 354.6387,172.4063 C354.4668,172.2813 354.3262,172.25 353.8731,172.25 L352.1543,172.25 L352.1543,165.7344 Z "/><text fill="#000000" font-family="sans-serif" font-size="12" font-style="italic" lengthAdjust="spacingAndGlyphs" textLength="167" x="365.2012" y="173.1074">AbstractSimpleDocoFactory</text><line style="stroke: #A80036; stroke-width: 1.5;" x1="337.2012" x2="534.2012" y1="184.9531" y2="184.9531"/><line style="stroke: #A80036; stroke-width: 1.5;" x1="337.2012" x2="534.2012" y1="192.9531" y2="192.9531"/><!--MD5=[8c920099133bd95de7a90ed3e7b2e321]
class CellGrid--><rect codeLine="19" fill="#FEFECE" filter="url(#f1awenmy82rxhe)" height="48" id="CellGrid" style="stroke: #A80036; stroke-width: 1.5;" width="79" x="1071.1982" y="277.9531"/><ellipse cx="1086.1982" cy="293.9531" fill="#ADD1B2" rx="11" ry="11" style="stroke: #A80036; stroke-width: 1.0;"/><path d="M1088.542,289.625 C1087.6045,289.1875 1087.0107,289.0469 1086.1357,289.0469 C1083.5107,289.0469 1081.5107,291.125 1081.5107,293.8438 L1081.5107,294.9688 C1081.5107,297.5469 1083.6201,299.4375 1086.5107,299.4375 C1087.7295,299.4375 1088.8857,299.1406 1089.6357,298.5938 C1090.2138,298.1875 1090.542,297.7344 1090.542,297.3438 C1090.542,296.8906 1090.1513,296.5 1089.6826,296.5 C1089.4638,296.5 1089.2607,296.5781 1089.0732,296.7656 C1088.6201,297.25 1088.6201,297.25 1088.4326,297.3438 C1088.0107,297.6094 1087.3232,297.7344 1086.5576,297.7344 C1084.5107,297.7344 1083.2138,296.6406 1083.2138,294.9375 L1083.2138,293.8438 C1083.2138,292.0625 1084.4638,290.75 1086.1982,290.75 C1086.7763,290.75 1087.3857,290.9063 1087.8545,291.1563 C1088.3388,291.4375 1088.5107,291.6563 1088.6045,292.0625 C1088.667,292.4688 1088.6982,292.5938 1088.8388,292.7188 C1088.9795,292.8594 1089.2138,292.9688 1089.4326,292.9688 C1089.6982,292.9688 1089.9638,292.8281 1090.1357,292.6094 C1090.2451,292.4531 1090.2763,292.2656 1090.2763,291.8438 L1090.2763,290.4219 C1090.2763,289.9844 1090.2607,289.8594 1090.167,289.7031 C1090.0107,289.4375 1089.7295,289.2969 1089.4326,289.2969 C1089.1357,289.2969 1088.9326,289.3906 1088.7138,289.7031 L1088.542,289.625 Z "/><text fill="#000000" font-family="sans-serif" font-size="12" lengthAdjust="spacingAndGlyphs" textLength="47" x="1100.1982" y="298.1074">CellGrid</text><line style="stroke: #A80036; stroke-width: 1.5;" x1="1072.1982" x2="1149.1982" y1="309.9531" y2="309.9531"/><line style="stroke: #A80036; stroke-width: 1.5;" x1="1072.1982" x2="1149.1982" y1="317.9531" y2="317.9531"/><!--MD5=[994b56f6035ea8d5eeeffee08038c00e]
class WorldBoard--><rect codeLine="24" fill="#FEFECE" filter="url(#f1awenmy82rxhe)" height="48" id="WorldBoard" style="stroke: #A80036; stroke-width: 1.5;" width="104" x="792.7012" y="152.9531"/><ellipse cx="807.7012" cy="168.9531" fill="#ADD1B2" rx="11" ry="11" style="stroke: #A80036; stroke-width: 1.0;"/><path d="M810.045,164.625 C809.1075,164.1875 808.5137,164.0469 807.6387,164.0469 C805.0137,164.0469 803.0137,166.125 803.0137,168.8438 L803.0137,169.9688 C803.0137,172.5469 805.1231,174.4375 808.0137,174.4375 C809.2325,174.4375 810.3887,174.1406 811.1387,173.5938 C811.7168,173.1875 812.045,172.7344 812.045,172.3438 C812.045,171.8906 811.6543,171.5 811.1856,171.5 C810.9668,171.5 810.7637,171.5781 810.5762,171.7656 C810.1231,172.25 810.1231,172.25 809.9356,172.3438 C809.5137,172.6094 808.8262,172.7344 808.0606,172.7344 C806.0137,172.7344 804.7168,171.6406 804.7168,169.9375 L804.7168,168.8438 C804.7168,167.0625 805.9668,165.75 807.7012,165.75 C808.2793,165.75 808.8887,165.9063 809.3575,166.1563 C809.8418,166.4375 810.0137,166.6563 810.1075,167.0625 C810.17,167.4688 810.2012,167.5938 810.3418,167.7188 C810.4825,167.8594 810.7168,167.9688 810.9356,167.9688 C811.2012,167.9688 811.4668,167.8281 811.6387,167.6094 C811.7481,167.4531 811.7793,167.2656 811.7793,166.8438 L811.7793,165.4219 C811.7793,164.9844 811.7637,164.8594 811.67,164.7031 C811.5137,164.4375 811.2325,164.2969 810.9356,164.2969 C810.6387,164.2969 810.4356,164.3906 810.2168,164.7031 L810.045,164.625 Z "/><text fill="#000000" font-family="sans-serif" font-size="12" lengthAdjust="spacingAndGlyphs" textLength="72" x="821.7012" y="173.1074">WorldBoard</text><line style="stroke: #A80036; stroke-width: 1.5;" x1="793.7012" x2="895.7012" y1="184.9531" y2="184.9531"/><line style="stroke: #A80036; stroke-width: 1.5;" x1="793.7012" x2="895.7012" y1="192.9531" y2="192.9531"/><!--MD5=[4520fda4e10d4d791ce48fe025810cd4]
class main--><rect codeLine="29" fill="#FEFECE" filter="url(#f1awenmy82rxhe)" height="48" id="main" style="stroke: #A80036; stroke-width: 1.5;" width="60" x="945.7012" y="27.9531"/><ellipse cx="960.7012" cy="43.9531" fill="#ADD1B2" rx="11" ry="11" style="stroke: #A80036; stroke-width: 1.0;"/><path d="M963.045,39.625 C962.1075,39.1875 961.5137,39.0469 960.6387,39.0469 C958.0137,39.0469 956.0137,41.125 956.0137,43.8438 L956.0137,44.9688 C956.0137,47.5469 958.1231,49.4375 961.0137,49.4375 C962.2325,49.4375 963.3887,49.1406 964.1387,48.5938 C964.7168,48.1875 965.045,47.7344 965.045,47.3438 C965.045,46.8906 964.6543,46.5 964.1856,46.5 C963.9668,46.5 963.7637,46.5781 963.5762,46.7656 C963.1231,47.25 963.1231,47.25 962.9356,47.3438 C962.5137,47.6094 961.8262,47.7344 961.0606,47.7344 C959.0137,47.7344 957.7168,46.6406 957.7168,44.9375 L957.7168,43.8438 C957.7168,42.0625 958.9668,40.75 960.7012,40.75 C961.2793,40.75 961.8887,40.9063 962.3575,41.1563 C962.8418,41.4375 963.0137,41.6563 963.1075,42.0625 C963.17,42.4688 963.2012,42.5938 963.3418,42.7188 C963.4825,42.8594 963.7168,42.9688 963.9356,42.9688 C964.2012,42.9688 964.4668,42.8281 964.6387,42.6094 C964.7481,42.4531 964.7793,42.2656 964.7793,41.8438 L964.7793,40.4219 C964.7793,39.9844 964.7637,39.8594 964.67,39.7031 C964.5137,39.4375 964.2325,39.2969 963.9356,39.2969 C963.6387,39.2969 963.4356,39.3906 963.2168,39.7031 L963.045,39.625 Z "/><text fill="#000000" font-family="sans-serif" font-size="12" lengthAdjust="spacingAndGlyphs" textLength="28" x="974.7012" y="48.1074">main</text><line style="stroke: #A80036; stroke-width: 1.5;" x1="946.7012" x2="1004.7012" y1="59.9531" y2="59.9531"/><line style="stroke: #A80036; stroke-width: 1.5;" x1="946.7012" x2="1004.7012" y1="67.9531" y2="67.9531"/><!--MD5=[cdc034b6503501c2a020e906a0bff78a]
class DataParser--><rect codeLine="33" fill="#FEFECE" filter="url(#f1awenmy82rxhe)" height="48" id="DataParser" style="stroke: #A80036; stroke-width: 1.5;" width="97" x="1185.1982" y="277.9531"/><ellipse cx="1200.1982" cy="293.9531" fill="#ADD1B2" rx="11" ry="11" style="stroke: #A80036; stroke-width: 1.0;"/><path d="M1202.542,289.625 C1201.6045,289.1875 1201.0107,289.0469 1200.1357,289.0469 C1197.5107,289.0469 1195.5107,291.125 1195.5107,293.8438 L1195.5107,294.9688 C1195.5107,297.5469 1197.6201,299.4375 1200.5107,299.4375 C1201.7295,299.4375 1202.8857,299.1406 1203.6357,298.5938 C1204.2138,298.1875 1204.542,297.7344 1204.542,297.3438 C1204.542,296.8906 1204.1513,296.5 1203.6826,296.5 C1203.4638,296.5 1203.2607,296.5781 1203.0732,296.7656 C1202.6201,297.25 1202.6201,297.25 1202.4326,297.3438 C1202.0107,297.6094 1201.3232,297.7344 1200.5576,297.7344 C1198.5107,297.7344 1197.2138,296.6406 1197.2138,294.9375 L1197.2138,293.8438 C1197.2138,292.0625 1198.4638,290.75 1200.1982,290.75 C1200.7763,290.75 1201.3857,290.9063 1201.8545,291.1563 C1202.3388,291.4375 1202.5107,291.6563 1202.6045,292.0625 C1202.667,292.4688 1202.6982,292.5938 1202.8388,292.7188 C1202.9795,292.8594 1203.2138,292.9688 1203.4326,292.9688 C1203.6982,292.9688 1203.9638,292.8281 1204.1357,292.6094 C1204.2451,292.4531 1204.2763,292.2656 1204.2763,291.8438 L1204.2763,290.4219 C1204.2763,289.9844 1204.2607,289.8594 1204.167,289.7031 C1204.0107,289.4375 1203.7295,289.2969 1203.4326,289.2969 C1203.1357,289.2969 1202.9326,289.3906 1202.7138,289.7031 L1202.542,289.625 Z "/><text fill="#000000" font-family="sans-serif" font-size="12" lengthAdjust="spacingAndGlyphs" textLength="65" x="1214.1982" y="298.1074">DataParser</text><line style="stroke: #A80036; stroke-width: 1.5;" x1="1186.1982" x2="1281.1982" y1="309.9531" y2="309.9531"/><line style="stroke: #A80036; stroke-width: 1.5;" x1="1186.1982" x2="1281.1982" y1="317.9531" y2="317.9531"/><!--MD5=[db12a1ab1b5c70918f2c1aa87b45e09a]
class Directions--><rect codeLine="37" fill="#FEFECE" filter="url(#f1awenmy82rxhe)" height="48" id="Directions" style="stroke: #A80036; stroke-width: 1.5;" width="93" x="600.2012" y="678.9531"/><ellipse cx="615.2012" cy="694.9531" fill="#ADD1B2" rx="11" ry="11" style="stroke: #A80036; stroke-width: 1.0;"/><path d="M617.545,690.625 C616.6075,690.1875 616.0137,690.0469 615.1387,690.0469 C612.5137,690.0469 610.5137,692.125 610.5137,694.8438 L610.5137,695.9688 C610.5137,698.5469 612.6231,700.4375 615.5137,700.4375 C616.7325,700.4375 617.8887,700.1406 618.6387,699.5938 C619.2168,699.1875 619.545,698.7344 619.545,698.3438 C619.545,697.8906 619.1543,697.5 618.6856,697.5 C618.4668,697.5 618.2637,697.5781 618.0762,697.7656 C617.6231,698.25 617.6231,698.25 617.4356,698.3438 C617.0137,698.6094 616.3262,698.7344 615.5606,698.7344 C613.5137,698.7344 612.2168,697.6406 612.2168,695.9375 L612.2168,694.8438 C612.2168,693.0625 613.4668,691.75 615.2012,691.75 C615.7793,691.75 616.3887,691.9063 616.8575,692.1563 C617.3418,692.4375 617.5137,692.6563 617.6075,693.0625 C617.67,693.4688 617.7012,693.5938 617.8418,693.7188 C617.9825,693.8594 618.2168,693.9688 618.4356,693.9688 C618.7012,693.9688 618.9668,693.8281 619.1387,693.6094 C619.2481,693.4531 619.2793,693.2656 619.2793,692.8438 L619.2793,691.4219 C619.2793,690.9844 619.2637,690.8594 619.17,690.7031 C619.0137,690.4375 618.7325,690.2969 618.4356,690.2969 C618.1387,690.2969 617.9356,690.3906 617.7168,690.7031 L617.545,690.625 Z "/><text fill="#000000" font-family="sans-serif" font-size="12" lengthAdjust="spacingAndGlyphs" textLength="61" x="629.2012" y="699.1074">Directions</text><line style="stroke: #A80036; stroke-width: 1.5;" x1="601.2012" x2="692.2012" y1="710.9531" y2="710.9531"/><line style="stroke: #A80036; stroke-width: 1.5;" x1="601.2012" x2="692.2012" y1="718.9531" y2="718.9531"/><!--MD5=[e78d3bd29d68b8fbdb4aae8710e3db25]
class Simulator--><rect codeLine="41" fill="#FEFECE" filter="url(#f1awenmy82rxhe)" height="48" id="Simulator" style="stroke: #A80036; stroke-width: 1.5;" width="88" x="931.7012" y="152.9531"/><ellipse cx="946.7012" cy="168.9531" fill="#ADD1B2" rx="11" ry="11" style="stroke: #A80036; stroke-width: 1.0;"/><path d="M949.045,164.625 C948.1075,164.1875 947.5137,164.0469 946.6387,164.0469 C944.0137,164.0469 942.0137,166.125 942.0137,168.8438 L942.0137,169.9688 C942.0137,172.5469 944.1231,174.4375 947.0137,174.4375 C948.2325,174.4375 949.3887,174.1406 950.1387,173.5938 C950.7168,173.1875 951.045,172.7344 951.045,172.3438 C951.045,171.8906 950.6543,171.5 950.1856,171.5 C949.9668,171.5 949.7637,171.5781 949.5762,171.7656 C949.1231,172.25 949.1231,172.25 948.9356,172.3438 C948.5137,172.6094 947.8262,172.7344 947.0606,172.7344 C945.0137,172.7344 943.7168,171.6406 943.7168,169.9375 L943.7168,168.8438 C943.7168,167.0625 944.9668,165.75 946.7012,165.75 C947.2793,165.75 947.8887,165.9063 948.3575,166.1563 C948.8418,166.4375 949.0137,166.6563 949.1075,167.0625 C949.17,167.4688 949.2012,167.5938 949.3418,167.7188 C949.4825,167.8594 949.7168,167.9688 949.9356,167.9688 C950.2012,167.9688 950.4668,167.8281 950.6387,167.6094 C950.7481,167.4531 950.7793,167.2656 950.7793,166.8438 L950.7793,165.4219 C950.7793,164.9844 950.7637,164.8594 950.67,164.7031 C950.5137,164.4375 950.2325,164.2969 949.9356,164.2969 C949.6387,164.2969 949.4356,164.3906 949.2168,164.7031 L949.045,164.625 Z "/><text fill="#000000" font-family="sans-serif" font-size="12" lengthAdjust="spacingAndGlyphs" textLength="56" x="960.7012" y="173.1074">Simulator</text><line style="stroke: #A80036; stroke-width: 1.5;" x1="932.7012" x2="1018.7012" y1="184.9531" y2="184.9531"/><line style="stroke: #A80036; stroke-width: 1.5;" x1="932.7012" x2="1018.7012" y1="192.9531" y2="192.9531"/><!--MD5=[f0c2b12f28f1e21456e453efee47df7d]
class GridSize--><rect codeLine="45" fill="#FEFECE" filter="url(#f1awenmy82rxhe)" height="48" id="GridSize" style="stroke: #A80036; stroke-width: 1.5;" width="83" x="1070.1982" y="415.9531"/><ellipse cx="1085.1982" cy="431.9531" fill="#ADD1B2" rx="11" ry="11" style="stroke: #A80036; stroke-width: 1.0;"/><path d="M1087.542,427.625 C1086.6045,427.1875 1086.0107,427.0469 1085.1357,427.0469 C1082.5107,427.0469 1080.5107,429.125 1080.5107,431.8438 L1080.5107,432.9688 C1080.5107,435.5469 1082.6201,437.4375 1085.5107,437.4375 C1086.7295,437.4375 1087.8857,437.1406 1088.6357,436.5938 C1089.2138,436.1875 1089.542,435.7344 1089.542,435.3438 C1089.542,434.8906 1089.1513,434.5 1088.6826,434.5 C1088.4638,434.5 1088.2607,434.5781 1088.0732,434.7656 C1087.6201,435.25 1087.6201,435.25 1087.4326,435.3438 C1087.0107,435.6094 1086.3232,435.7344 1085.5576,435.7344 C1083.5107,435.7344 1082.2138,434.6406 1082.2138,432.9375 L1082.2138,431.8438 C1082.2138,430.0625 1083.4638,428.75 1085.1982,428.75 C1085.7763,428.75 1086.3857,428.9063 1086.8545,429.1563 C1087.3388,429.4375 1087.5107,429.6563 1087.6045,430.0625 C1087.667,430.4688 1087.6982,430.5938 1087.8388,430.7188 C1087.9795,430.8594 1088.2138,430.9688 1088.4326,430.9688 C1088.6982,430.9688 1088.9638,430.8281 1089.1357,430.6094 C1089.2451,430.4531 1089.2763,430.2656 1089.2763,429.8438 L1089.2763,428.4219 C1089.2763,427.9844 1089.2607,427.8594 1089.167,427.7031 C1089.0107,427.4375 1088.7295,427.2969 1088.4326,427.2969 C1088.1357,427.2969 1087.9326,427.3906 1087.7138,427.7031 L1087.542,427.625 Z "/><text fill="#000000" font-family="sans-serif" font-size="12" lengthAdjust="spacingAndGlyphs" textLength="51" x="1099.1982" y="436.1074">GridSize</text><line style="stroke: #A80036; stroke-width: 1.5;" x1="1071.1982" x2="1152.1982" y1="447.9531" y2="447.9531"/><line style="stroke: #A80036; stroke-width: 1.5;" x1="1071.1982" x2="1152.1982" y1="455.9531" y2="455.9531"/><!--MD5=[fea3dc74c7473bae0133d22265a91e2f]
class Cell--><rect codeLine="49" fill="#FEFECE" filter="url(#f1awenmy82rxhe)" height="48" id="Cell" style="stroke: #A80036; stroke-width: 1.5;" width="54" x="1188.6982" y="415.9531"/><ellipse cx="1203.6982" cy="431.9531" fill="#ADD1B2" rx="11" ry="11" style="stroke: #A80036; stroke-width: 1.0;"/><path d="M1206.042,427.625 C1205.1045,427.1875 1204.5107,427.0469 1203.6357,427.0469 C1201.0107,427.0469 1199.0107,429.125 1199.0107,431.8438 L1199.0107,432.9688 C1199.0107,435.5469 1201.1201,437.4375 1204.0107,437.4375 C1205.2295,437.4375 1206.3857,437.1406 1207.1357,436.5938 C1207.7138,436.1875 1208.042,435.7344 1208.042,435.3438 C1208.042,434.8906 1207.6513,434.5 1207.1826,434.5 C1206.9638,434.5 1206.7607,434.5781 1206.5732,434.7656 C1206.1201,435.25 1206.1201,435.25 1205.9326,435.3438 C1205.5107,435.6094 1204.8232,435.7344 1204.0576,435.7344 C1202.0107,435.7344 1200.7138,434.6406 1200.7138,432.9375 L1200.7138,431.8438 C1200.7138,430.0625 1201.9638,428.75 1203.6982,428.75 C1204.2763,428.75 1204.8857,428.9063 1205.3545,429.1563 C1205.8388,429.4375 1206.0107,429.6563 1206.1045,430.0625 C1206.167,430.4688 1206.1982,430.5938 1206.3388,430.7188 C1206.4795,430.8594 1206.7138,430.9688 1206.9326,430.9688 C1207.1982,430.9688 1207.4638,430.8281 1207.6357,430.6094 C1207.7451,430.4531 1207.7763,430.2656 1207.7763,429.8438 L1207.7763,428.4219 C1207.7763,427.9844 1207.7607,427.8594 1207.667,427.7031 C1207.5107,427.4375 1207.2295,427.2969 1206.9326,427.2969 C1206.6357,427.2969 1206.4326,427.3906 1206.2138,427.7031 L1206.042,427.625 Z "/><text fill="#000000" font-family="sans-serif" font-size="12" lengthAdjust="spacingAndGlyphs" textLength="22" x="1217.6982" y="436.1074">Cell</text><line style="stroke: #A80036; stroke-width: 1.5;" x1="1189.6982" x2="1241.6982" y1="447.9531" y2="447.9531"/><line style="stroke: #A80036; stroke-width: 1.5;" x1="1189.6982" x2="1241.6982" y1="455.9531" y2="455.9531"/><!--MD5=[e6942bb3dc3af6df69a4b204b94b9e0a]
class Viewer--><rect codeLine="53" fill="#FEFECE" filter="url(#f1awenmy82rxhe)" height="48" id="Viewer" style="stroke: #A80036; stroke-width: 1.5;" width="74" x="1054.6982" y="152.9531"/><ellipse cx="1069.6982" cy="168.9531" fill="#ADD1B2" rx="11" ry="11" style="stroke: #A80036; stroke-width: 1.0;"/><path d="M1072.042,164.625 C1071.1045,164.1875 1070.5107,164.0469 1069.6357,164.0469 C1067.0107,164.0469 1065.0107,166.125 1065.0107,168.8438 L1065.0107,169.9688 C1065.0107,172.5469 1067.1201,174.4375 1070.0107,174.4375 C1071.2295,174.4375 1072.3857,174.1406 1073.1357,173.5938 C1073.7138,173.1875 1074.042,172.7344 1074.042,172.3438 C1074.042,171.8906 1073.6513,171.5 1073.1826,171.5 C1072.9638,171.5 1072.7607,171.5781 1072.5732,171.7656 C1072.1201,172.25 1072.1201,172.25 1071.9326,172.3438 C1071.5107,172.6094 1070.8232,172.7344 1070.0576,172.7344 C1068.0107,172.7344 1066.7138,171.6406 1066.7138,169.9375 L1066.7138,168.8438 C1066.7138,167.0625 1067.9638,165.75 1069.6982,165.75 C1070.2763,165.75 1070.8857,165.9063 1071.3545,166.1563 C1071.8388,166.4375 1072.0107,166.6563 1072.1045,167.0625 C1072.167,167.4688 1072.1982,167.5938 1072.3388,167.7188 C1072.4795,167.8594 1072.7138,167.9688 1072.9326,167.9688 C1073.1982,167.9688 1073.4638,167.8281 1073.6357,167.6094 C1073.7451,167.4531 1073.7763,167.2656 1073.7763,166.8438 L1073.7763,165.4219 C1073.7763,164.9844 1073.7607,164.8594 1073.667,164.7031 C1073.5107,164.4375 1073.2295,164.2969 1072.9326,164.2969 C1072.6357,164.2969 1072.4326,164.3906 1072.2138,164.7031 L1072.042,164.625 Z "/><text fill="#000000" font-family="sans-serif" font-size="12" lengthAdjust="spacingAndGlyphs" textLength="42" x="1083.6982" y="173.1074">Viewer</text><line style="stroke: #A80036; stroke-width: 1.5;" x1="1055.6982" x2="1127.6982" y1="184.9531" y2="184.9531"/><line style="stroke: #A80036; stroke-width: 1.5;" x1="1055.6982" x2="1127.6982" y1="192.9531" y2="192.9531"/><!--MD5=[55a63d344e63c69eff615f0e8fe333a4]
class DocoFactory--><rect codeLine="57" fill="#FEFECE" filter="url(#f1awenmy82rxhe)" height="48" id="DocoFactory" style="stroke: #A80036; stroke-width: 1.5;" width="109" x="648.2012" y="152.9531"/><ellipse cx="663.2012" cy="168.9531" fill="#ADD1B2" rx="11" ry="11" style="stroke: #A80036; stroke-width: 1.0;"/><path d="M665.545,164.625 C664.6075,164.1875 664.0137,164.0469 663.1387,164.0469 C660.5137,164.0469 658.5137,166.125 658.5137,168.8438 L658.5137,169.9688 C658.5137,172.5469 660.6231,174.4375 663.5137,174.4375 C664.7325,174.4375 665.8887,174.1406 666.6387,173.5938 C667.2168,173.1875 667.545,172.7344 667.545,172.3438 C667.545,171.8906 667.1543,171.5 666.6856,171.5 C666.4668,171.5 666.2637,171.5781 666.0762,171.7656 C665.6231,172.25 665.6231,172.25 665.4356,172.3438 C665.0137,172.6094 664.3262,172.7344 663.5606,172.7344 C661.5137,172.7344 660.2168,171.6406 660.2168,169.9375 L660.2168,168.8438 C660.2168,167.0625 661.4668,165.75 663.2012,165.75 C663.7793,165.75 664.3887,165.9063 664.8575,166.1563 C665.3418,166.4375 665.5137,166.6563 665.6075,167.0625 C665.67,167.4688 665.7012,167.5938 665.8418,167.7188 C665.9825,167.8594 666.2168,167.9688 666.4356,167.9688 C666.7012,167.9688 666.9668,167.8281 667.1387,167.6094 C667.2481,167.4531 667.2793,167.2656 667.2793,166.8438 L667.2793,165.4219 C667.2793,164.9844 667.2637,164.8594 667.17,164.7031 C667.0137,164.4375 666.7325,164.2969 666.4356,164.2969 C666.1387,164.2969 665.9356,164.3906 665.7168,164.7031 L665.545,164.625 Z "/><text fill="#000000" font-family="sans-serif" font-size="12" lengthAdjust="spacingAndGlyphs" textLength="77" x="677.2012" y="173.1074">DocoFactory</text><line style="stroke: #A80036; stroke-width: 1.5;" x1="649.2012" x2="756.2012" y1="184.9531" y2="184.9531"/><line style="stroke: #A80036; stroke-width: 1.5;" x1="649.2012" x2="756.2012" y1="192.9531" y2="192.9531"/><!--MD5=[e8a162c5bce2056132692cf1f01f8032]
class AbstractDoco--><rect codeLine="61" fill="#FEFECE" filter="url(#f1awenmy82rxhe)" height="48" id="AbstractDoco" style="stroke: #A80036; stroke-width: 1.5;" width="113" x="188.2012" y="152.9531"/><ellipse cx="203.2012" cy="168.9531" fill="#B4A7E5" rx="11" ry="11" style="stroke: #A80036; stroke-width: 1.0;"/><path d="M204.1543,165.7344 L205.8731,165.7344 C206.2637,165.7344 206.4512,165.7031 206.5762,165.625 C206.8418,165.4688 206.9825,165.1875 206.9825,164.8906 C206.9825,164.625 206.8731,164.3594 206.6387,164.1875 C206.4668,164.0781 206.3262,164.0469 205.8731,164.0469 L200.7325,164.0469 C200.295,164.0469 200.17,164.0625 200.0137,164.1563 C199.7637,164.3125 199.6075,164.6094 199.6075,164.8906 C199.6075,165.1719 199.7481,165.4219 199.9668,165.5938 C200.1231,165.7031 200.3106,165.7344 200.7325,165.7344 L202.4512,165.7344 L202.4512,172.25 L200.7325,172.25 C200.295,172.25 200.17,172.2656 200.0137,172.375 C199.7637,172.5313 199.6075,172.8125 199.6075,173.1094 C199.6075,173.3594 199.7481,173.625 199.9668,173.7813 C200.1231,173.9063 200.3262,173.9531 200.7325,173.9531 L205.8731,173.9531 C206.6231,173.9531 206.9825,173.6719 206.9825,173.1094 C206.9825,172.8281 206.8731,172.5781 206.6387,172.4063 C206.4668,172.2813 206.3262,172.25 205.8731,172.25 L204.1543,172.25 L204.1543,165.7344 Z "/><text fill="#000000" font-family="sans-serif" font-size="12" font-style="italic" lengthAdjust="spacingAndGlyphs" textLength="81" x="217.2012" y="173.1074">AbstractDoco</text><line style="stroke: #A80036; stroke-width: 1.5;" x1="189.2012" x2="300.2012" y1="184.9531" y2="184.9531"/><line style="stroke: #A80036; stroke-width: 1.5;" x1="189.2012" x2="300.2012" y1="192.9531" y2="192.9531"/><!--MD5=[953df660d60abfde2f7fd8a4b5dad129]
class DocoMovePatternDiagonal--><rect codeLine="65" fill="#FEFECE" filter="url(#f1awenmy82rxhe)" height="48" id="DocoMovePatternDiagonal" style="stroke: #A80036; stroke-width: 1.5;" width="190" x="96.7014" y="553.9531"/><ellipse cx="111.7014" cy="569.9531" fill="#ADD1B2" rx="11" ry="11" style="stroke: #A80036; stroke-width: 1.0;"/><path d="M114.0452,565.625 C113.1077,565.1875 112.5139,565.0469 111.6389,565.0469 C109.0139,565.0469 107.0139,567.125 107.0139,569.8438 L107.0139,570.9688 C107.0139,573.5469 109.1233,575.4375 112.0139,575.4375 C113.2327,575.4375 114.3889,575.1406 115.1389,574.5938 C115.717,574.1875 116.0452,573.7344 116.0452,573.3438 C116.0452,572.8906 115.6545,572.5 115.1858,572.5 C114.967,572.5 114.7639,572.5781 114.5764,572.7656 C114.1233,573.25 114.1233,573.25 113.9358,573.3438 C113.5139,573.6094 112.8264,573.7344 112.0608,573.7344 C110.0139,573.7344 108.717,572.6406 108.717,570.9375 L108.717,569.8438 C108.717,568.0625 109.967,566.75 111.7014,566.75 C112.2795,566.75 112.8889,566.9063 113.3577,567.1563 C113.842,567.4375 114.0139,567.6563 114.1077,568.0625 C114.1702,568.4688 114.2014,568.5938 114.342,568.7188 C114.4827,568.8594 114.717,568.9688 114.9358,568.9688 C115.2014,568.9688 115.467,568.8281 115.6389,568.6094 C115.7483,568.4531 115.7795,568.2656 115.7795,567.8438 L115.7795,566.4219 C115.7795,565.9844 115.7639,565.8594 115.6702,565.7031 C115.5139,565.4375 115.2327,565.2969 114.9358,565.2969 C114.6389,565.2969 114.4358,565.3906 114.217,565.7031 L114.0452,565.625 Z "/><text fill="#000000" font-family="sans-serif" font-size="12" lengthAdjust="spacingAndGlyphs" textLength="158" x="125.7014" y="574.1074">DocoMovePatternDiagonal</text><line style="stroke: #A80036; stroke-width: 1.5;" x1="97.7014" x2="285.7014" y1="585.9531" y2="585.9531"/><line style="stroke: #A80036; stroke-width: 1.5;" x1="97.7014" x2="285.7014" y1="593.9531" y2="593.9531"/><!--MD5=[6360b100a998df06bfac29e4baad8cf8]
class DocoMovePatternHorizontal--><rect codeLine="69" fill="#FEFECE" filter="url(#f1awenmy82rxhe)" height="48" id="DocoMovePatternHorizontal" style="stroke: #A80036; stroke-width: 1.5;" width="199" x="322.2012" y="553.9531"/><ellipse cx="337.2012" cy="569.9531" fill="#ADD1B2" rx="11" ry="11" style="stroke: #A80036; stroke-width: 1.0;"/><path d="M339.545,565.625 C338.6075,565.1875 338.0137,565.0469 337.1387,565.0469 C334.5137,565.0469 332.5137,567.125 332.5137,569.8438 L332.5137,570.9688 C332.5137,573.5469 334.6231,575.4375 337.5137,575.4375 C338.7325,575.4375 339.8887,575.1406 340.6387,574.5938 C341.2168,574.1875 341.545,573.7344 341.545,573.3438 C341.545,572.8906 341.1543,572.5 340.6856,572.5 C340.4668,572.5 340.2637,572.5781 340.0762,572.7656 C339.6231,573.25 339.6231,573.25 339.4356,573.3438 C339.0137,573.6094 338.3262,573.7344 337.5606,573.7344 C335.5137,573.7344 334.2168,572.6406 334.2168,570.9375 L334.2168,569.8438 C334.2168,568.0625 335.4668,566.75 337.2012,566.75 C337.7793,566.75 338.3887,566.9063 338.8575,567.1563 C339.3418,567.4375 339.5137,567.6563 339.6075,568.0625 C339.67,568.4688 339.7012,568.5938 339.8418,568.7188 C339.9825,568.8594 340.2168,568.9688 340.4356,568.9688 C340.7012,568.9688 340.9668,568.8281 341.1387,568.6094 C341.2481,568.4531 341.2793,568.2656 341.2793,567.8438 L341.2793,566.4219 C341.2793,565.9844 341.2637,565.8594 341.17,565.7031 C341.0137,565.4375 340.7325,565.2969 340.4356,565.2969 C340.1387,565.2969 339.9356,565.3906 339.7168,565.7031 L339.545,565.625 Z "/><text fill="#000000" font-family="sans-serif" font-size="12" lengthAdjust="spacingAndGlyphs" textLength="167" x="351.2012" y="574.1074">DocoMovePatternHorizontal</text><line style="stroke: #A80036; stroke-width: 1.5;" x1="323.2012" x2="520.2012" y1="585.9531" y2="585.9531"/><line style="stroke: #A80036; stroke-width: 1.5;" x1="323.2012" x2="520.2012" y1="593.9531" y2="593.9531"/><!--MD5=[bbe87360671672d218cc589a7957fb68]
class DocoMovePatternVertical--><rect codeLine="73" fill="#FEFECE" filter="url(#f1awenmy82rxhe)" height="48" id="DocoMovePatternVertical" style="stroke: #A80036; stroke-width: 1.5;" width="183" x="972.2012" y="553.9531"/><ellipse cx="987.2012" cy="569.9531" fill="#ADD1B2" rx="11" ry="11" style="stroke: #A80036; stroke-width: 1.0;"/><path d="M989.545,565.625 C988.6075,565.1875 988.0137,565.0469 987.1387,565.0469 C984.5137,565.0469 982.5137,567.125 982.5137,569.8438 L982.5137,570.9688 C982.5137,573.5469 984.6231,575.4375 987.5137,575.4375 C988.7325,575.4375 989.8887,575.1406 990.6387,574.5938 C991.2168,574.1875 991.545,573.7344 991.545,573.3438 C991.545,572.8906 991.1543,572.5 990.6856,572.5 C990.4668,572.5 990.2637,572.5781 990.0762,572.7656 C989.6231,573.25 989.6231,573.25 989.4356,573.3438 C989.0137,573.6094 988.3262,573.7344 987.5606,573.7344 C985.5137,573.7344 984.2168,572.6406 984.2168,570.9375 L984.2168,569.8438 C984.2168,568.0625 985.4668,566.75 987.2012,566.75 C987.7793,566.75 988.3887,566.9063 988.8575,567.1563 C989.3418,567.4375 989.5137,567.6563 989.6075,568.0625 C989.67,568.4688 989.7012,568.5938 989.8418,568.7188 C989.9825,568.8594 990.2168,568.9688 990.4356,568.9688 C990.7012,568.9688 990.9668,568.8281 991.1387,568.6094 C991.2481,568.4531 991.2793,568.2656 991.2793,567.8438 L991.2793,566.4219 C991.2793,565.9844 991.2637,565.8594 991.17,565.7031 C991.0137,565.4375 990.7325,565.2969 990.4356,565.2969 C990.1387,565.2969 989.9356,565.3906 989.7168,565.7031 L989.545,565.625 Z "/><text fill="#000000" font-family="sans-serif" font-size="12" lengthAdjust="spacingAndGlyphs" textLength="151" x="1001.2012" y="574.1074">DocoMovePatternVertical</text><line style="stroke: #A80036; stroke-width: 1.5;" x1="973.2012" x2="1154.2012" y1="585.9531" y2="585.9531"/><line style="stroke: #A80036; stroke-width: 1.5;" x1="973.2012" x2="1154.2012" y1="593.9531" y2="593.9531"/><!--MD5=[3378331b0cfcfc7087d2c1829356362f]
class DocoMovePatternDefault--><rect codeLine="77" fill="#FEFECE" filter="url(#f1awenmy82rxhe)" height="48" id="DocoMovePatternDefault" style="stroke: #A80036; stroke-width: 1.5;" width="180" x="556.7012" y="553.9531"/><ellipse cx="571.7012" cy="569.9531" fill="#ADD1B2" rx="11" ry="11" style="stroke: #A80036; stroke-width: 1.0;"/><path d="M574.045,565.625 C573.1075,565.1875 572.5137,565.0469 571.6387,565.0469 C569.0137,565.0469 567.0137,567.125 567.0137,569.8438 L567.0137,570.9688 C567.0137,573.5469 569.1231,575.4375 572.0137,575.4375 C573.2325,575.4375 574.3887,575.1406 575.1387,574.5938 C575.7168,574.1875 576.045,573.7344 576.045,573.3438 C576.045,572.8906 575.6543,572.5 575.1856,572.5 C574.9668,572.5 574.7637,572.5781 574.5762,572.7656 C574.1231,573.25 574.1231,573.25 573.9356,573.3438 C573.5137,573.6094 572.8262,573.7344 572.0606,573.7344 C570.0137,573.7344 568.7168,572.6406 568.7168,570.9375 L568.7168,569.8438 C568.7168,568.0625 569.9668,566.75 571.7012,566.75 C572.2793,566.75 572.8887,566.9063 573.3575,567.1563 C573.8418,567.4375 574.0137,567.6563 574.1075,568.0625 C574.17,568.4688 574.2012,568.5938 574.3418,568.7188 C574.4825,568.8594 574.7168,568.9688 574.9356,568.9688 C575.2012,568.9688 575.4668,568.8281 575.6387,568.6094 C575.7481,568.4531 575.7793,568.2656 575.7793,567.8438 L575.7793,566.4219 C575.7793,565.9844 575.7637,565.8594 575.67,565.7031 C575.5137,565.4375 575.2325,565.2969 574.9356,565.2969 C574.6387,565.2969 574.4356,565.3906 574.2168,565.7031 L574.045,565.625 Z "/><text fill="#000000" font-family="sans-serif" font-size="12" lengthAdjust="spacingAndGlyphs" textLength="148" x="585.7012" y="574.1074">DocoMovePatternDefault</text><line style="stroke: #A80036; stroke-width: 1.5;" x1="557.7012" x2="735.7012" y1="585.9531" y2="585.9531"/><line style="stroke: #A80036; stroke-width: 1.5;" x1="557.7012" x2="735.7012" y1="593.9531" y2="593.9531"/><!--MD5=[440f321fefe44b547ca7537cb0055647]
class DocoMovePatternPerp--><rect codeLine="81" fill="#FEFECE" filter="url(#f1awenmy82rxhe)" height="48" id="DocoMovePatternPerp" style="stroke: #A80036; stroke-width: 1.5;" width="165" x="772.2012" y="553.9531"/><ellipse cx="787.2012" cy="569.9531" fill="#ADD1B2" rx="11" ry="11" style="stroke: #A80036; stroke-width: 1.0;"/><path d="M789.545,565.625 C788.6075,565.1875 788.0137,565.0469 787.1387,565.0469 C784.5137,565.0469 782.5137,567.125 782.5137,569.8438 L782.5137,570.9688 C782.5137,573.5469 784.6231,575.4375 787.5137,575.4375 C788.7325,575.4375 789.8887,575.1406 790.6387,574.5938 C791.2168,574.1875 791.545,573.7344 791.545,573.3438 C791.545,572.8906 791.1543,572.5 790.6856,572.5 C790.4668,572.5 790.2637,572.5781 790.0762,572.7656 C789.6231,573.25 789.6231,573.25 789.4356,573.3438 C789.0137,573.6094 788.3262,573.7344 787.5606,573.7344 C785.5137,573.7344 784.2168,572.6406 784.2168,570.9375 L784.2168,569.8438 C784.2168,568.0625 785.4668,566.75 787.2012,566.75 C787.7793,566.75 788.3887,566.9063 788.8575,567.1563 C789.3418,567.4375 789.5137,567.6563 789.6075,568.0625 C789.67,568.4688 789.7012,568.5938 789.8418,568.7188 C789.9825,568.8594 790.2168,568.9688 790.4356,568.9688 C790.7012,568.9688 790.9668,568.8281 791.1387,568.6094 C791.2481,568.4531 791.2793,568.2656 791.2793,567.8438 L791.2793,566.4219 C791.2793,565.9844 791.2637,565.8594 791.17,565.7031 C791.0137,565.4375 790.7325,565.2969 790.4356,565.2969 C790.1387,565.2969 789.9356,565.3906 789.7168,565.7031 L789.545,565.625 Z "/><text fill="#000000" font-family="sans-serif" font-size="12" lengthAdjust="spacingAndGlyphs" textLength="133" x="801.2012" y="574.1074">DocoMovePatternPerp</text><line style="stroke: #A80036; stroke-width: 1.5;" x1="773.2012" x2="936.2012" y1="585.9531" y2="585.9531"/><line style="stroke: #A80036; stroke-width: 1.5;" x1="773.2012" x2="936.2012" y1="593.9531" y2="593.9531"/><!--MD5=[47bbaf53bda0691deb3e3fb16542de9f]
class UniformRandom--><rect codeLine="85" fill="#FEFECE" filter="url(#f1awenmy82rxhe)" height="48" id="UniformRandom" style="stroke: #A80036; stroke-width: 1.5;" width="127" x="1190.1982" y="553.9531"/><ellipse cx="1205.1982" cy="569.9531" fill="#ADD1B2" rx="11" ry="11" style="stroke: #A80036; stroke-width: 1.0;"/><path d="M1207.542,565.625 C1206.6045,565.1875 1206.0107,565.0469 1205.1357,565.0469 C1202.5107,565.0469 1200.5107,567.125 1200.5107,569.8438 L1200.5107,570.9688 C1200.5107,573.5469 1202.6201,575.4375 1205.5107,575.4375 C1206.7295,575.4375 1207.8857,575.1406 1208.6357,574.5938 C1209.2138,574.1875 1209.542,573.7344 1209.542,573.3438 C1209.542,572.8906 1209.1513,572.5 1208.6826,572.5 C1208.4638,572.5 1208.2607,572.5781 1208.0732,572.7656 C1207.6201,573.25 1207.6201,573.25 1207.4326,573.3438 C1207.0107,573.6094 1206.3232,573.7344 1205.5576,573.7344 C1203.5107,573.7344 1202.2138,572.6406 1202.2138,570.9375 L1202.2138,569.8438 C1202.2138,568.0625 1203.4638,566.75 1205.1982,566.75 C1205.7763,566.75 1206.3857,566.9063 1206.8545,567.1563 C1207.3388,567.4375 1207.5107,567.6563 1207.6045,568.0625 C1207.667,568.4688 1207.6982,568.5938 1207.8388,568.7188 C1207.9795,568.8594 1208.2138,568.9688 1208.4326,568.9688 C1208.6982,568.9688 1208.9638,568.8281 1209.1357,568.6094 C1209.2451,568.4531 1209.2763,568.2656 1209.2763,567.8438 L1209.2763,566.4219 C1209.2763,565.9844 1209.2607,565.8594 1209.167,565.7031 C1209.0107,565.4375 1208.7295,565.2969 1208.4326,565.2969 C1208.1357,565.2969 1207.9326,565.3906 1207.7138,565.7031 L1207.542,565.625 Z "/><text fill="#000000" font-family="sans-serif" font-size="12" lengthAdjust="spacingAndGlyphs" textLength="95" x="1219.1982" y="574.1074">UniformRandom</text><line style="stroke: #A80036; stroke-width: 1.5;" x1="1191.1982" x2="1316.1982" y1="585.9531" y2="585.9531"/><line style="stroke: #A80036; stroke-width: 1.5;" x1="1191.1982" x2="1316.1982" y1="593.9531" y2="593.9531"/><!--MD5=[b26cc115b4e81c0ee916f39528847cff]
reverse link CellGrid to Cell--><path codeLine="90" d="M1139.8482,336.4801 C1145.2082,342.8721 1150.6882,349.5631 1155.6982,355.9531 C1171.1682,375.6821 1187.7982,398.8581 1199.6182,415.6981 " fill="none" id="CellGrid-backto-Cell" style="stroke: #A80036; stroke-width: 1.0;"/><polygon fill="#A80036" points="1131.0382,326.1081,1131.876,333.2704,1138.8096,335.2517,1137.9718,328.0895,1131.0382,326.1081" style="stroke: #A80036; stroke-width: 1.0;"/><text fill="#000000" font-family="sans-serif" font-size="13" lengthAdjust="spacingAndGlyphs" textLength="34" x="1168.6982" y="369.02">owns</text><text fill="#000000" font-family="sans-serif" font-size="13" lengthAdjust="spacingAndGlyphs" textLength="8" x="1127.0211" y="345.9071">1</text><text fill="#000000" font-family="sans-serif" font-size="13" lengthAdjust="spacingAndGlyphs" textLength="7" x="1187.8456" y="405.0409">*</text><!--MD5=[a2584ea92d3e2bc0d8a5a1d36531d964]
reverse link CellGrid to GridSize--><path codeLine="91" d="M1110.9682,339.0481 C1111.1482,363.3681 1111.3782,394.7291 1111.5282,415.7691 " fill="none" id="CellGrid-backto-GridSize" style="stroke: #A80036; stroke-width: 1.0;"/><polygon fill="#A80036" points="1110.8682,326.0241,1106.9125,332.0534,1110.9565,338.0238,1114.9123,331.9945,1110.8682,326.0241" style="stroke: #A80036; stroke-width: 1.0;"/><text fill="#000000" font-family="sans-serif" font-size="13" lengthAdjust="spacingAndGlyphs" textLength="34" x="1112.6982" y="369.02">owns</text><text fill="#000000" font-family="sans-serif" font-size="13" lengthAdjust="spacingAndGlyphs" textLength="8" x="1101.8868" y="346.1981">1</text><text fill="#000000" font-family="sans-serif" font-size="13" lengthAdjust="spacingAndGlyphs" textLength="8" x="1102.4596" y="404.734">1</text><!--MD5=[18e040d26ec6078dbe42436f88e7f37f]
reverse link WorldBoard to CellGrid--><path codeLine="92" d="M909.5642,199.7651 C910.9542,200.1711 912.3342,200.5671 913.7012,200.9531 C970.3512,216.9441 991.4502,202.0021 1042.7012,230.9531 C1063.2082,242.5361 1081.4882,262.1781 1093.9182,277.7121 " fill="none" id="WorldBoard-backto-CellGrid" style="stroke: #A80036; stroke-width: 1.0;"/><polygon fill="#FFFFFF" points="896.9102,195.9251,901.4898,201.4953,908.393,199.4103,903.8133,193.8401,896.9102,195.9251" style="stroke: #A80036; stroke-width: 1.0;"/><text fill="#000000" font-family="sans-serif" font-size="13" lengthAdjust="spacingAndGlyphs" textLength="23" x="1065.6982" y="244.02">has</text><text fill="#000000" font-family="sans-serif" font-size="13" lengthAdjust="spacingAndGlyphs" textLength="8" x="904.8146" y="194.6146">1</text><text fill="#000000" font-family="sans-serif" font-size="13" lengthAdjust="spacingAndGlyphs" textLength="8" x="1080.8531" y="267.0583">1</text><!--MD5=[a7ba8c4af5aa908a299e4683d79b703f]
reverse link WorldBoard to DataParser--><path codeLine="93" d="M909.5312,199.8911 C910.9312,200.2581 912.3222,200.6131 913.7012,200.9531 C994.1512,220.7841 1019.0102,205.0081 1097.6982,230.9531 C1132.8782,242.5531 1170.1082,262.2961 1196.6982,277.8641 " fill="none" id="WorldBoard-backto-DataParser" style="stroke: #A80036; stroke-width: 1.0;"/><polygon fill="#FFFFFF" points="896.8112,196.2991,901.4984,201.7791,908.3596,199.5601,903.6724,194.0801,896.8112,196.2991" style="stroke: #A80036; stroke-width: 1.0;"/><text fill="#000000" font-family="sans-serif" font-size="13" lengthAdjust="spacingAndGlyphs" textLength="23" x="1137.6982" y="244.02">has</text><text fill="#000000" font-family="sans-serif" font-size="13" lengthAdjust="spacingAndGlyphs" textLength="8" x="904.7017" y="212.1506">1</text><text fill="#000000" font-family="sans-serif" font-size="13" lengthAdjust="spacingAndGlyphs" textLength="8" x="1178.192" y="266.8534">1</text><!--MD5=[7a852da821ffef3a743b22afcb346e6d]
link DocoMovePatternDiagonal to DocoFactory--><path codeLine="95" d="M185.6492,553.8691 C170.8592,491.5841 140.2942,318.8731 229.7012,230.9531 C255.4012,205.6811 516.9272,205.3531 552.7012,200.9531 C579.6452,197.6391 609.2002,193.2671 634.8982,189.2251 " fill="none" id="DocoMovePatternDiagonal-to-DocoFactory" style="stroke: #A80036; stroke-width: 1.0;"/><polygon fill="#FFFFFF" points="647.9522,187.1491,641.3982,184.1417,636.1013,189.0348,642.6553,192.0423,647.9522,187.1491" style="stroke: #A80036; stroke-width: 1.0;"/><text fill="#000000" font-family="sans-serif" font-size="13" lengthAdjust="spacingAndGlyphs" textLength="23" x="173.7012" y="369.02">has</text><!--MD5=[d379f3c8a9a4b0e9d0b02224b11d28e6]
link DocoMovePatternHorizontal to DocoFactory--><path codeLine="96" d="M416.1482,553.7841 C407.3142,511.3691 394.5122,419.7471 430.7012,355.9531 C475.3692,277.2121 570.8562,227.2611 635.9362,200.9371 " fill="none" id="DocoMovePatternHorizontal-to-DocoFactory" style="stroke: #A80036; stroke-width: 1.0;"/><polygon fill="#FFFFFF" points="648.1192,196.1401,641.0709,194.6166,636.9536,200.5367,644.0019,202.0603,648.1192,196.1401" style="stroke: #A80036; stroke-width: 1.0;"/><text fill="#000000" font-family="sans-serif" font-size="13" lengthAdjust="spacingAndGlyphs" textLength="23" x="431.7012" y="369.02">has</text><!--MD5=[f34dcc19c552cc8ecf95bde91195d0aa]
link DocoMovePatternVertical to DocoFactory--><path codeLine="97" d="M1045.3182,553.7761 C999.7162,496.7591 876.8352,345.9541 762.7012,230.9531 C755.6212,223.8191 747.7542,216.4871 740.1092,209.6371 " fill="none" id="DocoMovePatternVertical-to-DocoFactory" style="stroke: #A80036; stroke-width: 1.0;"/><polygon fill="#FFFFFF" points="730.2712,200.9681,732.1282,207.936,739.2743,208.9019,737.4173,201.934,730.2712,200.9681" style="stroke: #A80036; stroke-width: 1.0;"/><text fill="#000000" font-family="sans-serif" font-size="13" lengthAdjust="spacingAndGlyphs" textLength="23" x="892.7012" y="369.02">has</text><!--MD5=[f892602fe6981131eb71b9f9a2eb5d55]
link DocoMovePatternPerp to DocoFactory--><path codeLine="98" d="M848.0652,553.7361 C831.5892,497.2481 786.2532,348.6411 732.7012,230.9531 C729.9712,224.9531 726.7922,218.7321 723.5432,212.7541 " fill="none" id="DocoMovePatternPerp-to-DocoFactory" style="stroke: #A80036; stroke-width: 1.0;"/><polygon fill="#FFFFFF" points="716.9012,200.9721,716.3634,208.1631,722.7944,211.4254,723.3322,204.2343,716.9012,200.9721" style="stroke: #A80036; stroke-width: 1.0;"/><text fill="#000000" font-family="sans-serif" font-size="13" lengthAdjust="spacingAndGlyphs" textLength="23" x="790.7012" y="369.02">has</text><!--MD5=[43f4a194d8391b4de31906eeaf23aa4f]
link DocoMovePatternDefault to DocoFactory--><path codeLine="99" d="M662.8042,553.6921 C668.1662,544.7821 673.5652,534.2721 676.7012,523.9531 C709.7592,415.1791 708.2062,278.7391 705.1072,214.5411 " fill="none" id="DocoMovePatternDefault-to-DocoFactory" style="stroke: #A80036; stroke-width: 1.0;"/><polygon fill="#FFFFFF" points="704.3922,201.2581,700.7204,207.4644,705.037,213.2408,708.7088,207.0345,704.3922,201.2581" style="stroke: #A80036; stroke-width: 1.0;"/><text fill="#000000" font-family="sans-serif" font-size="13" lengthAdjust="spacingAndGlyphs" textLength="23" x="705.7012" y="369.02">has</text><!--MD5=[b41af3994b5f0c1b516cadba51ecb051]
reverse link DocoMoveStrategy to DocoMovePatternDefault--><path codeLine="101" d="M579.7132,495.9871 C584.0252,505.6451 589.0342,515.3471 594.7012,523.9531 C601.7912,534.7191 611.2762,545.1611 620.2042,553.8901 " fill="none" id="DocoMoveStrategy-backto-DocoMovePatternDefault" style="stroke: #A80036; stroke-width: 1.0; stroke-dasharray: 7.0,7.0;"/><polygon fill="none" points="573.1182,498.3541,572.0712,477.1901,586.0882,493.0821,573.1182,498.3541" style="stroke: #A80036; stroke-width: 1.0;"/><text fill="#000000" font-family="sans-serif" font-size="13" lengthAdjust="spacingAndGlyphs" textLength="76" x="595.7012" y="520.02">implements</text><!--MD5=[1f0157b231da76f6e6b57ec3eeb89bdb]
reverse link DocoMoveStrategy to DocoMovePatternDiagonal--><path codeLine="102" d="M468.6902,474.8651 C401.8392,499.5041 313.1352,532.1971 254.3252,553.8721 " fill="none" id="DocoMoveStrategy-backto-DocoMovePatternDiagonal" style="stroke: #A80036; stroke-width: 1.0; stroke-dasharray: 7.0,7.0;"/><polygon fill="none" points="466.6122,468.1711,487.7992,467.8221,471.4532,481.3071,466.6122,468.1711" style="stroke: #A80036; stroke-width: 1.0;"/><text fill="#000000" font-family="sans-serif" font-size="13" lengthAdjust="spacingAndGlyphs" textLength="76" x="377.7012" y="520.02">implements</text><!--MD5=[11df688a899def2997fb895d3886b9ec]
reverse link DocoMoveStrategy to DocoMovePatternHorizontal--><path codeLine="103" d="M509.2442,491.2991 C487.4402,512.6331 463.0912,536.4561 445.6182,553.5521 " fill="none" id="DocoMoveStrategy-backto-DocoMovePatternHorizontal" style="stroke: #A80036; stroke-width: 1.0; stroke-dasharray: 7.0,7.0;"/><polygon fill="none" points="504.6262,486.0251,523.8172,477.0411,514.4172,496.0321,504.6262,486.0251" style="stroke: #A80036; stroke-width: 1.0;"/><text fill="#000000" font-family="sans-serif" font-size="13" lengthAdjust="spacingAndGlyphs" textLength="76" x="492.7012" y="520.02">implements</text><!--MD5=[4240038fbbcf0c8286a7b0b871346011]
reverse link DocoMoveStrategy to DocoMovePatternVertical--><path codeLine="104" d="M652.8902,463.5951 C702.6852,476.0161 765.1692,491.9101 820.7012,506.9531 C876.2142,521.9901 938.5432,539.9681 986.1772,553.9391 " fill="none" id="DocoMoveStrategy-backto-DocoMovePatternVertical" style="stroke: #A80036; stroke-width: 1.0; stroke-dasharray: 7.0,7.0;"/><polygon fill="none" points="651.1512,470.3761,633.4312,458.7561,654.5292,456.7891,651.1512,470.3761" style="stroke: #A80036; stroke-width: 1.0;"/><text fill="#000000" font-family="sans-serif" font-size="13" lengthAdjust="spacingAndGlyphs" textLength="76" x="882.7012" y="520.02">implements</text><!--MD5=[e8870f9c3433a929ba87f391fc6099b5]
reverse link DocoMoveStrategy to DocoMovePatternPerp--><path codeLine="105" d="M651.8102,483.0991 C702.3112,506.4601 763.1532,534.6041 804.9582,553.9431 " fill="none" id="DocoMoveStrategy-backto-DocoMovePatternPerp" style="stroke: #A80036; stroke-width: 1.0; stroke-dasharray: 7.0,7.0;"/><polygon fill="none" points="648.5882,489.3211,633.3752,474.5711,654.4662,476.6151,648.5882,489.3211" style="stroke: #A80036; stroke-width: 1.0;"/><text fill="#000000" font-family="sans-serif" font-size="13" lengthAdjust="spacingAndGlyphs" textLength="76" x="735.7012" y="520.02">implements</text><!--MD5=[d1ef34172fd0d0b7d8bdded21c1369b1]
link Doco to DocoMoveStrategy--><path codeLine="107" d="M342.9512,310.3611 C374.9842,318.5651 424.8052,333.6501 463.7012,355.9531 C484.2582,367.7401 504.5632,384.1581 521.2412,399.2841 " fill="none" id="Doco-to-DocoMoveStrategy" style="stroke: #A80036; stroke-width: 1.0; stroke-dasharray: 7.0,7.0;"/><polygon fill="#A80036" points="524.9612,402.6911,521.0243,393.6633,521.2734,399.3147,515.622,399.5638,524.9612,402.6911" style="stroke: #A80036; stroke-width: 1.0;"/><text fill="#000000" font-family="sans-serif" font-size="13" lengthAdjust="spacingAndGlyphs" textLength="30" x="488.7012" y="369.02">uses</text><!--MD5=[76f71ad5d52f84e9a900093493dee497]
reverse link AbstractSimpleDocoFactory to DocoFactory--><path codeLine="109" d="M555.8652,176.9531 C588.0302,176.9531 621.2372,176.9531 647.9192,176.9531 " fill="none" id="AbstractSimpleDocoFactory-backto-DocoFactory" style="stroke: #A80036; stroke-width: 1.0; stroke-dasharray: 7.0,7.0;"/><polygon fill="none" points="555.5022,183.9531,535.5022,176.9531,555.5022,169.9531,555.5022,183.9531" style="stroke: #A80036; stroke-width: 1.0;"/><text fill="#000000" font-family="sans-serif" font-size="13" lengthAdjust="spacingAndGlyphs" textLength="76" x="553.7012" y="170.02">implements</text><!--MD5=[c7aac155b2116f592794458169c7f8a8]
link DocoFactory to Doco--><path codeLine="110" d="M648.1192,186.3181 C551.5212,201.1321 360.4662,230.4771 359.7012,230.9531 C343.7222,240.8981 331.5462,258.1791 323.3282,273.0821 " fill="none" id="DocoFactory-to-Doco" style="stroke: #A80036; stroke-width: 1.0; stroke-dasharray: 7.0,7.0;"/><polygon fill="#A80036" points="320.9052,277.6201,328.6715,271.5634,323.2593,273.209,321.6137,267.7968,320.9052,277.6201" style="stroke: #A80036; stroke-width: 1.0;"/><text fill="#000000" font-family="sans-serif" font-size="13" lengthAdjust="spacingAndGlyphs" textLength="48" x="360.7012" y="244.02">creates</text><!--MD5=[eaa7d2b4859e799283d554bbff5a4034]
link Directions to Doco--><path codeLine="111" d="M600.0102,701.1012 C476.3762,697.7619 145.4062,681.4271 78.7014,601.9531 C6,515.3341 63.3435,435.5201 143.7014,355.9531 C176.2352,323.7391 228.2422,311.0841 265.5772,306.1251 " fill="none" id="Directions-to-Doco" style="stroke: #A80036; stroke-width: 1.0;"/><polygon fill="#A80036" points="278.6052,304.6241,272.187,301.3368,266.684,305.9969,273.1022,309.2843,278.6052,304.6241" style="stroke: #A80036; stroke-width: 1.0;"/><text fill="#000000" font-family="sans-serif" font-size="13" lengthAdjust="spacingAndGlyphs" textLength="34" x="47.7014" y="520.02">owns</text><text fill="#000000" font-family="sans-serif" font-size="13" lengthAdjust="spacingAndGlyphs" textLength="8" x="584.2481" y="696.7463">1</text><text fill="#000000" font-family="sans-serif" font-size="13" lengthAdjust="spacingAndGlyphs" textLength="8" x="262.7092" y="300.6492">1</text><!--MD5=[ee9111b6338bea935318b0e36b1785c7]
reverse link AbstractDoco to Doco--><path codeLine="112" d="M236.2752,221.4531 C236.2842,230.5611 237.7092,239.8521 241.7012,247.9531 C249.5142,263.8051 264.5982,276.2381 278.6752,285.0661 " fill="none" id="AbstractDoco-backto-Doco" style="stroke: #A80036; stroke-width: 1.0; stroke-dasharray: 7.0,7.0;"/><polygon fill="none" points="229.3452,220.3921,238.2762,201.1761,243.2772,221.7671,229.3452,220.3921" style="stroke: #A80036; stroke-width: 1.0;"/><text fill="#000000" font-family="sans-serif" font-size="13" lengthAdjust="spacingAndGlyphs" textLength="76" x="242.7012" y="244.02">implements</text><!--MD5=[013651e2fb41d67f2b7e38fdc1d6073e]
reverse link AbstractDoco to WorldBoard--><path codeLine="113" d="M306.2082,153.8821 C347.7492,139.6241 404.1982,122.7851 455.7012,115.9531 C504.0412,109.5401 635.7952,120.5381 774.7012,152.9531 C780.5812,154.3251 786.6622,156.0021 792.6712,157.8271 " fill="none" id="AbstractDoco-backto-WorldBoard" style="stroke: #A80036; stroke-width: 1.0; stroke-dasharray: 7.0,7.0;"/><polygon fill="#A80036" points="301.4722,155.5191,311.2853,156.3579,306.1976,153.8849,308.6706,148.7973,301.4722,155.5191" style="stroke: #A80036; stroke-width: 1.0;"/><text fill="#000000" font-family="sans-serif" font-size="13" lengthAdjust="spacingAndGlyphs" textLength="30" x="456.7012" y="119.02">uses</text><!--MD5=[f4ed289c2d4182ec8db1f3df0409c054]
reverse link AbstractSimpleDocoFactory to WorldBoard--><path codeLine="114" d="M487.6442,150.7961 C536.7412,129.2211 612.6622,103.9581 679.7012,115.9531 C719.3852,123.0541 762.0132,139.0501 793.9992,152.8801 " fill="none" id="AbstractSimpleDocoFactory-backto-WorldBoard" style="stroke: #A80036; stroke-width: 1.0; stroke-dasharray: 7.0,7.0;"/><polygon fill="#A80036" points="482.9782,152.8711,492.8271,152.8706,487.5471,150.8402,489.5775,145.5602,482.9782,152.8711" style="stroke: #A80036; stroke-width: 1.0;"/><text fill="#000000" font-family="sans-serif" font-size="13" lengthAdjust="spacingAndGlyphs" textLength="30" x="648.7012" y="119.02">uses</text><!--MD5=[c3c1c86efc6663559184030bc4c35ad4]
reverse link DocoMovePatternDiagonal to Directions--><path codeLine="116" d="M289.6382,605.4281 C385.4912,631.3402 527.3752,669.6956 600.0602,689.3446 " fill="none" id="DocoMovePatternDiagonal-backto-Directions" style="stroke: #A80036; stroke-width: 1.0;"/><polygon fill="#FFFFFF" points="277.0162,602.0161,281.7644,607.4434,288.6003,605.1479,283.8522,599.7206,277.0162,602.0161" style="stroke: #A80036; stroke-width: 1.0;"/><text fill="#000000" font-family="sans-serif" font-size="13" lengthAdjust="spacingAndGlyphs" textLength="23" x="447.7012" y="645.02">has</text><!--MD5=[e08940c87cb8dbd53dc52e2a86724722]
reverse link DocoMovePatternHorizontal to Directions--><path codeLine="117" d="M475.5732,608.4031 C515.1252,630.0246 568.0932,658.9809 604.5702,678.9215 " fill="none" id="DocoMovePatternHorizontal-backto-Directions" style="stroke: #A80036; stroke-width: 1.0;"/><polygon fill="#FFFFFF" points="464.0222,602.0881,467.3683,608.4759,474.5517,607.844,471.2056,601.4563,464.0222,602.0881" style="stroke: #A80036; stroke-width: 1.0;"/><text fill="#000000" font-family="sans-serif" font-size="13" lengthAdjust="spacingAndGlyphs" textLength="23" x="548.7012" y="645.02">has</text><!--MD5=[13637094b1b3e8bf742126b9df361de5]
reverse link DocoMovePatternVertical to Directions--><path codeLine="118" d="M972.5962,605.8261 C886.4852,631.2255 760.7422,668.3153 693.3972,688.1797 " fill="none" id="DocoMovePatternVertical-backto-Directions" style="stroke: #A80036; stroke-width: 1.0;"/><polygon fill="#FFFFFF" points="985.2672,602.0881,978.3808,599.9487,973.7573,605.4825,980.6437,607.622,985.2672,602.0881" style="stroke: #A80036; stroke-width: 1.0;"/><text fill="#000000" font-family="sans-serif" font-size="13" lengthAdjust="spacingAndGlyphs" textLength="23" x="881.7012" y="645.02">has</text><!--MD5=[65cf3bd8b7388368f7c9b648bdd17475]
reverse link DocoMovePatternPerp to Directions--><path codeLine="119" d="M804.1912,608.8221 C767.7052,630.3978 719.1522,659.1095 685.6492,678.9215 " fill="none" id="DocoMovePatternPerp-backto-Directions" style="stroke: #A80036; stroke-width: 1.0;"/><polygon fill="#FFFFFF" points="815.5782,602.0881,808.3776,601.6991,805.2491,608.1962,812.4497,608.5852,815.5782,602.0881" style="stroke: #A80036; stroke-width: 1.0;"/><text fill="#000000" font-family="sans-serif" font-size="13" lengthAdjust="spacingAndGlyphs" textLength="23" x="764.7012" y="645.02">has</text><!--MD5=[8426c9069d859839ca99141a299694f7]
reverse link DocoMovePatternDefault to Directions--><path codeLine="120" d="M646.7012,615.1671 C646.7012,635.786 646.7012,660.9964 646.7012,678.9215 " fill="none" id="DocoMovePatternDefault-backto-Directions" style="stroke: #A80036; stroke-width: 1.0;"/><polygon fill="#FFFFFF" points="646.7012,602.0881,642.7012,608.0881,646.7012,614.0881,650.7012,608.0881,646.7012,602.0881" style="stroke: #A80036; stroke-width: 1.0;"/><text fill="#000000" font-family="sans-serif" font-size="13" lengthAdjust="spacingAndGlyphs" textLength="23" x="647.7012" y="645.02">has</text><!--MD5=[b6ced674456098e948020321dae803b5]
link UniformRandom to Directions--><path codeLine="122" d="M1190.1682,597.5691 C1184.2782,599.1201 1178.3882,600.6071 1172.6982,601.9531 C1004.9232,641.6393 804.1532,676.3109 706.2672,692.4022 " fill="none" id="UniformRandom-to-Directions" style="stroke: #A80036; stroke-width: 1.0;"/><polygon fill="#FFFFFF" points="693.4342,694.5021,700.0012,697.4811,705.2768,692.565,698.7098,689.586,693.4342,694.5021" style="stroke: #A80036; stroke-width: 1.0;"/><text fill="#000000" font-family="sans-serif" font-size="13" lengthAdjust="spacingAndGlyphs" textLength="23" x="1030.7012" y="645.02">has</text><!--MD5=[cbc16b2dfa2871f325c539562e780c8f]
reverse link main to Simulator--><path codeLine="124" d="M975.7012,89.1671 C975.7012,109.7861 975.7012,134.9961 975.7012,152.9211 " fill="none" id="main-backto-Simulator" style="stroke: #A80036; stroke-width: 1.0;"/><polygon fill="#FFFFFF" points="975.7012,76.0881,971.7012,82.0881,975.7012,88.0881,979.7012,82.0881,975.7012,76.0881" style="stroke: #A80036; stroke-width: 1.0;"/><text fill="#000000" font-family="sans-serif" font-size="13" lengthAdjust="spacingAndGlyphs" textLength="23" x="976.7012" y="119.02">has</text><text fill="#000000" font-family="sans-serif" font-size="13" lengthAdjust="spacingAndGlyphs" textLength="8" x="966.7262" y="95.8822">1</text><text fill="#000000" font-family="sans-serif" font-size="13" lengthAdjust="spacingAndGlyphs" textLength="8" x="966.6762" y="141.925">1</text><!--MD5=[484763531718cbe400e67e4070c28440]
reverse link main to Viewer--><path codeLine="125" d="M1006.5502,85.6631 C1026.5472,106.8671 1052.1082,133.9671 1069.9782,152.9211 " fill="none" id="main-backto-Viewer" style="stroke: #A80036; stroke-width: 1.0;"/><polygon fill="#FFFFFF" points="997.5202,76.0881,998.7272,83.1975,1005.7539,84.8177,1004.5469,77.7083,997.5202,76.0881" style="stroke: #A80036; stroke-width: 1.0;"/><text fill="#000000" font-family="sans-serif" font-size="13" lengthAdjust="spacingAndGlyphs" textLength="23" x="1041.7012" y="119.02">has</text><text fill="#000000" font-family="sans-serif" font-size="13" lengthAdjust="spacingAndGlyphs" textLength="8" x="993.8636" y="95.8822">1</text><text fill="#000000" font-family="sans-serif" font-size="13" lengthAdjust="spacingAndGlyphs" textLength="8" x="1055.3875" y="141.925">1</text><!--MD5=[5705628357f4f23738aea87aebe128a9]
reverse link main to WorldBoard--><path codeLine="126" d="M941.4752,85.0891 C918.8042,106.3761 889.6012,133.7961 869.2312,152.9211 " fill="none" id="main-backto-WorldBoard" style="stroke: #A80036; stroke-width: 1.0;"/><polygon fill="#FFFFFF" points="951.0612,76.0881,943.9491,77.2791,942.3131,84.3022,949.4252,83.1112,951.0612,76.0881" style="stroke: #A80036; stroke-width: 1.0;"/><text fill="#000000" font-family="sans-serif" font-size="13" lengthAdjust="spacingAndGlyphs" textLength="23" x="919.7012" y="119.02">has</text><text fill="#000000" font-family="sans-serif" font-size="13" lengthAdjust="spacingAndGlyphs" textLength="8" x="936.0802" y="95.8822">1</text><text fill="#000000" font-family="sans-serif" font-size="13" lengthAdjust="spacingAndGlyphs" textLength="8" x="866.492" y="141.925">1</text><!--MD5=[6ef481b5c25e951db6d6a09d7d8b8562]
@startuml
title PA-2: Class Outline

interface DocoMoveStrategy
{
    +moveStrategy()
    +avoidanceStrategy()
}

class Doco 
{

}

interface AbstractSimpleDocoFactory
{
 
}

class CellGrid 
{
    
}

class WorldBoard 
{
  
}

class main {
 
}

class DataParser {
  
}

class Directions {
  
}

class Simulator {
   
}

class GridSize {

}

class Cell {
  
}

class Viewer {
   
}

class DocoFactory {

}

interface AbstractDoco {
  
}

class DocoMovePatternDiagonal {
  
}

class DocoMovePatternHorizontal {
  
}

class DocoMovePatternVertical {
   
}

class DocoMovePatternDefault {
    
}

class DocoMovePatternPerp {

}

class UniformRandom 
{

}

CellGrid "1" *-down- "*" Cell : owns
CellGrid "1" *-down- "1" GridSize : owns
WorldBoard "1" o-down- "1" CellGrid : has
WorldBoard "1" o-down- "1" DataParser : has

DocoMovePatternDiagonal - -o DocoFactory : has
DocoMovePatternHorizontal - -o DocoFactory : has
DocoMovePatternVertical - -o DocoFactory : has
DocoMovePatternPerp - -o DocoFactory : has
DocoMovePatternDefault - -o DocoFactory : has

DocoMovePatternDefault .up.|> DocoMoveStrategy : implements
DocoMovePatternDiagonal .up.|> DocoMoveStrategy : implements
DocoMovePatternHorizontal .up.|> DocoMoveStrategy : implements
DocoMovePatternVertical .up.|> DocoMoveStrategy : implements
DocoMovePatternPerp .up.|> DocoMoveStrategy : implements

Doco .down.> DocoMoveStrategy : uses

AbstractSimpleDocoFactory <|.right. DocoFactory : implements
DocoFactory ..> Doco : creates
Doco "1" *-left- "1" Directions : owns
Doco .left.|> AbstractDoco : implements
WorldBoard .left.> AbstractDoco : uses
WorldBoard .left.> AbstractSimpleDocoFactory : uses

DocoMovePatternDiagonal o- - Directions : has
DocoMovePatternHorizontal o- - Directions : has
DocoMovePatternVertical o- - Directions : has
DocoMovePatternPerp o- - Directions : has
DocoMovePatternDefault o- - Directions : has

UniformRandom - -o Directions : has

main "1" o-down- "1" Simulator : has
main "1" o-down- "1" Viewer : has
main "1" o-down- "1" WorldBoard : has
@enduml

PlantUML version 1.2020.20beta4(Unknown compile time)
(GPL source distribution)
Java Runtime: Java(TM) SE Runtime Environment
JVM: Java HotSpot(TM) 64-Bit Server VM
Default Encoding: UTF-8
Language: en
Country: US
--></g></svg>